<?xml version="1.0" encoding="UTF-8" standalone="no"?>
<svg
   id="ic2d"
   width="159.28mm"
   height="42.069mm"
   version="1.1"
   viewBox="0 0 159.28 42.069"
   xml:space="preserve"
   sodipodi:docname="logo.svg"
   inkscape:version="1.4.2 (f4327f4, 2025-05-13)"
   xmlns:inkscape="http://www.inkscape.org/namespaces/inkscape"
   xmlns:sodipodi="http://sodipodi.sourceforge.net/DTD/sodipodi-0.dtd"
   xmlns="http://www.w3.org/2000/svg"
   xmlns:svg="http://www.w3.org/2000/svg"><defs
     id="defs1" /><sodipodi:namedview
     id="namedview1"
     pagecolor="#ffffff"
     bordercolor="#000000"
     borderopacity="0.25"
     inkscape:showpageshadow="2"
     inkscape:pageopacity="0.0"
     inkscape:pagecheckerboard="0"
     inkscape:deskcolor="#d1d1d1"
     inkscape:document-units="mm"
     inkscape:zoom="2.9866954"
     inkscape:cx="63.782869"
     inkscape:cy="79.351916"
     inkscape:window-width="1920"
     inkscape:window-height="991"
     inkscape:window-x="-9"
     inkscape:window-y="-9"
     inkscape:window-maximized="1"
     inkscape:current-layer="ic2d" /><g
     id="layer3"><path
       id="text_shadow"
       transform="translate(-21.724 -96.063)"
       d="m105.88 95.97c-2.5149 0-4.8834 0.44786-7.1055 1.3436-2.2221 0.89572-4.16 2.2049-5.8136 3.9274-1.6536 1.7053-2.9283 3.7638-3.8241 6.1753-0.8785 2.4116-1.3177 5.1418-1.3177 8.1907 0 1.8776 0.17225 3.6518 0.51676 5.3227 0.36174 1.6709 0.89572 3.247 1.602 4.7284 0.70625 1.4642 1.5589 2.7905 2.558 3.9791 1.1197 1.3091 2.3427 2.3685 3.669 3.1781 1.3436 0.79237 2.8336 1.378 4.47 1.757 1.6364 0.37896 3.4537 0.56845 5.4519 0.56845 2.6355 0 4.9437-0.42203 6.9246-1.2661 1.9809-0.84404 3.6087-1.9379 4.8834-3.2814 1.2747-1.3608 2.2049-2.7389 2.7905-4.1341 0.60289-1.4125 0.90434-2.7216 0.90434-3.9274 0-0.94741-0.32729-1.7398-0.98185-2.3771-0.65457-0.63735-1.4383-0.95601-2.3513-0.95601-1.068 0-1.8431 0.31866-2.3254 0.95601-0.48231 0.62012-0.88711 1.4297-1.2144 2.4288-0.77514 2.1187-1.9292 3.7293-3.4623 4.8318-1.5158 1.0852-3.3762 1.6278-5.581 1.6278-2.0326 0-3.8068-0.48232-5.3227-1.4469-1.5158-0.96463-2.6872-2.4202-3.514-4.3667-0.82682-1.9637-1.2402-4.4183-1.2402-7.3639 0-4.4097 0.93017-7.8118 2.7905-10.206 1.8776-2.3943 4.3925-3.5915 7.5448-3.5915 1.9809 0 3.6432 0.46509 4.9868 1.3953 1.3608 0.93018 2.5408 2.3341 3.5398 4.2116 0.60289 1.1369 1.1455 1.9379 1.6278 2.403 0.49954 0.46508 1.2402 0.69763 2.2221 0.69763 0.8785 0 1.6278-0.3359 2.2479-1.0077 0.62012-0.6718 0.93018-1.4469 0.93018-2.3254 0-1.602-0.63734-3.2987-1.912-5.0901-1.2747-1.8087-3.1092-3.3245-5.5035-4.5475-2.3944-1.223-5.1246-1.8345-8.1907-1.8345zm-27.828 0.31006c-0.9474 0-1.7828 0.32728-2.5063 0.98185-0.70624 0.63734-1.0594 1.4556-1.0594 2.4546 0 1.1024 0.34451 1.9551 1.0335 2.558 0.70624 0.6029 1.5503 0.90434 2.5321 0.90434 0.9474 0 1.7656-0.30144 2.4546-0.90434 0.68902-0.62011 1.0335-1.4728 1.0335-2.558 0-1.1197-0.35312-1.9723-1.0594-2.558-0.70624-0.58567-1.5158-0.8785-2.4288-0.8785zm55.59 0.28267c-1.3356 0-2.503 0.16737-3.5021 0.5023-0.98853 0.3261-1.8088 0.75841-2.4608 1.296-0.64149 0.53764-1.137 1.0588-1.463 1.7198-0.326 0.66103-0.54423 1.298-0.53123 1.9818 0.0102 0.53484 0.12253 1.1303 0.47439 1.5332 0.393 0.45002 1.0293 0.71139 1.6252 0.75499 0.53545 0.0391 1.1159-0.13498 1.5441-0.45888 0.51806-0.39188 0.80096-1.0559 1.0428-1.6464 0.25239-0.59052 0.5294-0.95973 0.63459-1.0919 0.78873-1.0136 2.0946-1.2364 2.5234-1.2304 0.58093 0.0085 1.1987 0.0258 1.7203 0.28163 0.44428 0.21789 0.83735 0.58444 1.0868 1.0118 0.21003 0.36001 0.29494 0.79914 0.29094 1.2159-4e-3 0.46401-0.0444 0.80076-0.34933 1.3472-0.29446 0.53763-0.79569 0.81634-1.3741 1.3364-0.54313 0.46171-0.73423 0.63455-1.6567 1.2661l-2.8432 2.0815c-1.1936 0.82957-2.4768 1.7954-3.5037 2.9151-0.36735 0.40056-0.71907 0.83781-0.9307 1.3384-0.19944 0.47172-0.36554 1.0013-0.29404 1.5084 0.0678 0.48031 0.29996 0.97385 0.66301 1.2955 0.49054 0.43464 1.0566 0.67708 1.8454 0.678l11.61 0.0165c0.69408 1e-3 1.1341-0.23258 1.5456-0.60203 0.32572-0.2924 0.54895-0.73128 0.60565-1.1653 0.0682-0.52173-0.0164-1.1285-0.34365-1.5405-0.34918-0.43957-0.69804-0.71915-1.5182-0.72915l-7.5871-0.0873 5.1e-4 -5.2e-4c0.59059-0.59575 1.5552-1.3144 3.1166-2.3874 1.588-1.0841 2.4694-1.8815 3.1424-2.3838 0.67304-0.51119 1.3553-1.088 1.9968-1.9782 0.65203-0.899 0.8785-2.0935 0.8785-3.1864 0-0.69629-0.17388-1.4986-0.48938-2.142-0.30496-0.65221-0.85185-1.2577-1.4092-1.7513-0.55736-0.49356-1.3697-0.88171-2.1058-1.1638-1.1358-0.42306-2.3758-0.53537-3.9848-0.53537zm18.043 0.1509c-1.6536 0-2.8508 0.37035-3.5915 1.111s-1.111 1.9379-1.111 3.5915v27.776c0 1.223 0.10335 2.2221 0.31006 2.9972 0.22393 0.75793 0.68902 1.3522 1.3953 1.7828 0.70625 0.41341 1.757 0.62012 3.1523 0.62012h9.9994c1.7398 0 3.2987-0.11197 4.6767-0.3359 1.3953-0.22393 2.6958-0.6115 3.9016-1.1627 1.2058-0.55121 2.3168-1.2833 3.3331-2.1962 1.2919-1.1886 2.3513-2.5321 3.1781-4.0308 0.82683-1.5158 1.4383-3.2126 1.8345-5.0901 0.39618-1.8776 0.59428-3.9532 0.59428-6.227 0-6.8902-1.9723-12.023-5.917-15.4-1.5158-1.3264-3.2039-2.2307-5.0643-2.713-1.8604-0.48231-4.091-0.72347-6.6921-0.72347zm2.9714 6.072h5.0643c2.3427 0 4.3408 0.25839 5.9945 0.77515 1.6536 0.49954 3.0403 1.6795 4.16 3.5398 1.1369 1.8604 1.7053 4.6595 1.7053 8.3974 0 5.3054-1.2833 9.0434-3.8499 11.214-0.56844 0.49954-1.2402 0.88712-2.0154 1.1627-0.77515 0.27561-1.5244 0.44787-2.2479 0.51677-0.72346 0.0689-1.7225 0.10335-2.9972 0.10335h-5.8136zm-76.682 3.6747c-1.0335 0-1.8776 0.35312-2.5321 1.0594-0.63734 0.70625-0.95601 1.757-0.95601 3.1523v20.18c0 1.378 0.31867 2.4374 0.95601 3.1781 0.65457 0.7407 1.4986 1.111 2.5321 1.111 1.0335 0 1.8862-0.36174 2.558-1.0852s1.0077-1.7914 1.0077-3.2039v-20.386c0-1.2575-0.3359-2.2393-1.0077-2.9456-0.67179-0.70624-1.5245-1.0594-2.558-1.0594z"
       style="fill:#373435;fill-opacity:1" /></g><g
     id="layer1"
     transform="translate(-21.724 -96.063)"
     style=""><path
       id="text"
       d="m107.57 98.121c-2.5149 0-4.8834 0.44786-7.1055 1.3436-2.2221 0.89572-4.16 2.2049-5.8136 3.9274-1.6536 1.7053-2.9283 3.7638-3.8241 6.1753-0.8785 2.4116-1.3177 5.1418-1.3177 8.1907 0 1.8776 0.17225 3.6518 0.51676 5.3227 0.36174 1.6709 0.89572 3.247 1.602 4.7284 0.70624 1.4642 1.5589 2.7905 2.558 3.9791 1.1197 1.3091 2.3427 2.3685 3.669 3.1781 1.3436 0.79237 2.8336 1.378 4.47 1.757s3.4537 0.56844 5.4519 0.56844c2.6355 0 4.9437-0.42202 6.9246-1.2661 1.9809-0.84405 3.6087-1.9379 4.8834-3.2814 1.2747-1.3608 2.2049-2.7388 2.7905-4.1341 0.60289-1.4125 0.90434-2.7216 0.90434-3.9274 0-0.9474-0.32729-1.7398-0.98186-2.3771-0.65457-0.63735-1.4383-0.95601-2.3513-0.95601-1.068 0-1.8431 0.31866-2.3254 0.95601-0.48232 0.62011-0.88711 1.4297-1.2144 2.4288-0.77515 2.1187-1.9292 3.7293-3.4623 4.8318-1.5158 1.0852-3.3762 1.6278-5.5811 1.6278-2.0326 0-3.8068-0.48232-5.3227-1.4469-1.5158-0.96463-2.6872-2.4202-3.514-4.3667-0.82682-1.9637-1.2402-4.4183-1.2402-7.3639 0-4.4097 0.93017-7.8118 2.7905-10.206 1.8776-2.3944 4.3925-3.5915 7.5448-3.5915 1.9809 0 3.6432 0.46508 4.9868 1.3953 1.3608 0.93018 2.5408 2.334 3.5398 4.2116 0.60288 1.1369 1.1455 1.9379 1.6278 2.403 0.49953 0.46508 1.2402 0.69763 2.2221 0.69763 0.8785 0 1.6278-0.3359 2.2479-1.0077 0.62012-0.6718 0.93017-1.4469 0.93017-2.3254 0-1.602-0.63734-3.2987-1.912-5.0901-1.2747-1.8087-3.1092-3.3245-5.5035-4.5475-2.3943-1.223-5.1246-1.8345-8.1907-1.8345zm27.658 0.29352c-1.3356 0-2.5031 0.16737-3.5021 0.5023-0.98853 0.3261-1.8088 0.75841-2.4608 1.296-0.64149 0.53763-1.137 1.0588-1.463 1.7198s-0.54423 1.298-0.53123 1.9818c0.0102 0.53484 0.12253 1.1303 0.47439 1.5332 0.39299 0.45003 1.0294 0.71194 1.6252 0.75551 0.53546 0.0391 1.1159-0.1355 1.5441-0.4594 0.51806-0.39188 0.80096-1.0559 1.0428-1.6464 0.25239-0.59052 0.5294-0.95972 0.63459-1.0919 0.78872-1.0136 2.0946-1.2368 2.5234-1.2304 0.58093 8e-3 1.1987 0.0263 1.7203 0.28215 0.44428 0.2179 0.83735 0.58392 1.0868 1.0113 0.21006 0.36001 0.29531 0.79914 0.29094 1.216-4e-3 0.46401-0.0444 0.80075-0.34933 1.3472-0.29446 0.53763-0.79568 0.81634-1.3741 1.3364-0.54312 0.46171-0.73423 0.63455-1.6567 1.2661l-2.8432 2.0815c-1.1936 0.82958-2.4768 1.7954-3.5037 2.9151-0.36735 0.40056-0.71907 0.83781-0.9307 1.3384-0.19945 0.47173-0.36558 1.0013-0.29404 1.5084 0.0678 0.4803 0.29996 0.97384 0.66301 1.2955 0.49054 0.43464 1.0566 0.67708 1.8454 0.678l11.61 0.017c0.69408 1e-3 1.1341-0.2331 1.5456-0.60255 0.32573-0.2924 0.54896-0.73128 0.60565-1.1653 0.0682-0.52173-0.0164-1.1285-0.34365-1.5405-0.34918-0.43958-0.69803-0.71912-1.5182-0.72864l-7.5871-0.0879 5.1e-4 -5.2e-4c0.59059-0.59574 1.5552-1.3144 3.1166-2.3874 1.588-1.0841 2.4694-1.8814 3.1424-2.3838 0.67304-0.5112 1.3553-1.088 1.9968-1.9782 0.65203-0.899 0.8785-2.0935 0.8785-3.1864 0-0.69628-0.17388-1.4986-0.48938-2.142-0.30496-0.65222-0.85185-1.2578-1.4092-1.7513-0.55736-0.49356-1.3697-0.88171-2.1058-1.1638-1.1358-0.42306-2.3758-0.53537-3.9848-0.53537zm-55.485 0.01654c-0.9474 0-1.7828 0.32728-2.5063 0.98185-0.70624 0.63734-1.0594 1.4556-1.0594 2.4546 0 1.1024 0.34451 1.9551 1.0335 2.558 0.70624 0.6029 1.5503 0.90434 2.5321 0.90434 0.9474 0 1.7656-0.30144 2.4546-0.90434 0.68902-0.62012 1.0335-1.4728 1.0335-2.558 0-1.1196-0.35312-1.9723-1.0594-2.558-0.70624-0.58567-1.5158-0.8785-2.4288-0.8785zm73.735 0.36949c-1.6536 0-2.8508 0.37035-3.5915 1.111-0.74069 0.74069-1.111 1.9379-1.111 3.5915v27.776c0 1.223 0.10335 2.2221 0.31006 2.9972 0.22393 0.75792 0.68902 1.3522 1.3953 1.7828 0.70625 0.41342 1.757 0.62012 3.1523 0.62012h9.9994c1.7398 0 3.2987-0.11196 4.6767-0.3359 1.3953-0.22392 2.6958-0.6115 3.9016-1.1627 1.2058-0.55121 2.3168-1.2833 3.3331-2.1962 1.2919-1.1886 2.3513-2.5321 3.1781-4.0308 0.82682-1.5158 1.4383-3.2126 1.8345-5.0901 0.39618-1.8776 0.59428-3.9532 0.59428-6.227 0-6.8902-1.9723-12.023-5.917-15.4-1.5158-1.3264-3.2039-2.2307-5.0643-2.713-1.8603-0.48231-4.091-0.72347-6.6921-0.72347zm2.9714 6.072h5.0643c2.3427 0 4.3408 0.25838 5.9945 0.77514 1.6536 0.49954 3.0403 1.6795 4.16 3.5398 1.1369 1.8604 1.7053 4.6595 1.7053 8.3974 0 5.3054-1.2833 9.0434-3.8499 11.214-0.56844 0.49954-1.2402 0.88712-2.0154 1.1627-0.77515 0.27561-1.5244 0.44787-2.2479 0.51677-0.72347 0.0689-1.7226 0.10335-2.9972 0.10335h-5.8136zm-76.784 3.7388c-1.0335 0-1.8776 0.35312-2.5321 1.0594-0.63734 0.70625-0.95601 1.757-0.95601 3.1523v20.18c0 1.378 0.31867 2.4374 0.95601 3.1781 0.65457 0.7407 1.4986 1.111 2.5321 1.111 1.0335 0 1.8862-0.36173 2.558-1.0852s1.0077-1.7914 1.0077-3.2039v-20.386c0-1.2575-0.3359-2.2393-1.0077-2.9456-0.67179-0.70624-1.5245-1.0594-2.558-1.0594z" /></g><g
     id="layer2"
     style="fill:#373435;fill-opacity:1"><path
       id="icon"
       transform="translate(-21.724 -96.063)"
       d="m35.88 100.43-5.9531 3.2592c-3.2742 1.7927-6.1733 3.4525-6.5753 3.6959-0.32915 0.19932-1.1138 0.50795-1.4175 1.4594-0.32306 1.012-0.21684 2.2355-0.20361 12.43-0.0062 11.888-0.2315 12.176 1.1322 13.433 0.58792 0.54163 1.8079 0.66882 9.0795 1.6924 4.494 0.63259 9.0045 1.2727 10.023 1.4221 3.8784 0.56911 4.6747 0.36597 10.253-2.6138 7.5026-4.0076 8.13-4.4055 8.5571-5.4276 0.30084-0.72003 0.37207-3.1619 0.37207-12.769 0-13.542 0.11754-12.853-2.3182-13.637-1.7847-0.57449-18.301-2.8884-20.833-2.9187zm1.8857 2.249c1.1294 0 17.032 2.1565 18.214 2.4608 0.03851 0.01 0.08394 0.0593 0.0646 0.0904-0.14924 0.24009-1.5032 1.0104-5.6426 3.236-3.1631 1.7007-4.2138 2.1444-5.0271 2.1218-0.56552-0.0157-4.0645-0.42535-7.7752-0.91002-3.7108-0.48468-7.467-1.0546-8.4129-1.1555-0.88206-0.094-1.6776-0.1932-1.9348-0.28732-0.02666-0.01-0.0732-0.0347-0.07286-0.0615 0.0025-0.2051 1.1197-0.97487 3.1967-2.1182 5.9909-3.298 6.1626-3.3765 7.3897-3.3765zm2.1854 1.0697c-3.708 0.0184-7.4856 2.5587-5.9645 3.7341 0.71355 0.52176 3.956 0.38085 6.3154-0.30541 0.34728-0.10102 0.17978 0.42839 0.14108 0.64493-0.11985 0.67065 0.29468 1.2038 1.1312 1.4082 1.0984 0.25205 2.4312 0.0619 3.3171-0.20567 1.1217-0.23054 2.5204-0.86684 3.3652-1.3157 3.1664-1.6824 2.2024-2.8068-2.0862-2.3213-1.3959 0.15803-2.8635 0.38602-3.1047 0.47852-0.3463 0.13289-0.582-8e-3 -0.40359-0.58911 0.3114-1.0135-0.25578-1.3411-1.972-1.4976-0.24499-0.0223-0.49177-0.0322-0.73897-0.031zm-0.42013 0.89969c0.38458-0.01 0.71724 0.0316 0.95291 0.13901 0.40517 0.18461 0.55552 0.48544 0.55552 0.8971 0 0.53143-0.19298 0.68429-1.1756 0.93173-0.64652 0.1628-1.9562 0.2961-2.9104 0.2961-1.3732 0-1.7348-0.0838-1.7348-0.40101 0-0.80889 2.6459-1.8195 4.3124-1.8629zm6.967 1.5394c0.74782-0.0174 1.2694 0.0482 1.3674 0.20671 0.22607 0.36579-0.5815 0.99206-1.9813 1.5239-1.3998 0.53186-3.0766 0.70041-3.423 0.35399-0.09702-0.097-0.38617-0.46729-0.27234-0.84801 0.16187-0.54139 0.04793-0.63463 1.5844-0.94413 1.003-0.17467 1.9771-0.27506 2.7249-0.29249zm-21.545 4.3026 0.47646 5e-3c0.65484 6e-3 2.7384 0.21629 4.6302 0.46767 3.865 0.51358 8.1607 1.0772 11.509 1.51 1.2369 0.15985 2.5184 0.46617 2.8474 0.68058l0.53744 0.34985a0.13256 0.13256 0 0 1 0.05994 0.11214l-0.06821 10.893a33.961 33.961 0 0 0-5.17e-4 0.14521l-0.02119 10.588a0.47132 0.47132 0 0 1-0.51625 0.46819l-0.83147-0.0806c-0.53334-0.0422-1.0421-0.1146-1.4743-0.1695-0.43656-0.0657-4.4002-0.538-8.9653-1.1782-4.5651-0.64023-8.5321-1.4005-8.7344-1.5684-0.3052-0.25329-0.28982-2.0783-0.23254-11.217l0.0646-10.298a0.71217 0.71217 0 0 1 0.71882-0.70796zm32.495 0.8754a1.2825 1.8621 8.2283 0 1 1.1503 1.8521 1.2825 1.8621 8.2283 0 1-1.4289 1.8521 1.2825 1.8621 8.2283 0 1-1.1503-1.8521 1.2825 1.8621 8.2283 0 1 1.4289-1.8521zm-26.09 5.1149c-0.47437 0.0139-0.86585 0.16019-1.1746 0.43822-0.3487 0.31391-0.53756 0.7482-0.56586 1.3033-0.0423 0.89715-0.07079 1.4645-0.08578 1.7017-0.01488 0.23315-0.05173 0.44869-0.11007 0.64751-0.05419 0.19497-0.14551 0.35412-0.2744 0.47697-0.12474 0.11901-0.33504 0.26218-0.63097 0.42943-0.23847 0.13775-0.36184 0.35574-0.37052 0.65371-6e-3 0.20535 0.02957 0.35785 0.10749 0.45837 0.07804 0.0965 0.21015 0.21013 0.39636 0.34003 0.19036 0.12607 0.34219 0.26005 0.45527 0.40256 0.11711 0.14271 0.20207 0.35053 0.25476 0.62322 0.02105 0.10987 0.03227 0.35037 0.03359 0.7214 0.0013 0.37103-1e-3 0.86274-0.0067 1.4754-0.0065 0.36259 0.06512 0.68665 0.21446 0.97204 0.14922 0.28941 0.36484 0.51744 0.64699 0.68419 0.28619 0.16696 0.61296 0.25936 0.9803 0.27699 0.5934 0.0285 0.89738-0.20111 0.91157-0.68833 0.0061-0.20938-0.03978-0.38101-0.13694-0.5147-0.09717-0.13367-0.22184-0.21381-0.37465-0.24133-0.18487-0.0371-0.31543-0.0737-0.39119-0.10955-0.07588-0.0319-0.14072-0.0997-0.1943-0.20309-0.04966-0.0992-0.08145-0.24387-0.09612-0.43408-0.01064-0.19003-0.01058-0.48452 1e-3 -0.88315 0.01548-0.53151-0.0037-0.96763-0.05839-1.309-0.05462-0.34535-0.15957-0.63058-0.31471-0.85576-0.15502-0.2292-0.3733-0.43954-0.65474-0.63045 0.30826-0.17472 0.54425-0.37502 0.70848-0.601 0.16827-0.22579 0.28362-0.50226 0.34572-0.82992 0.06625-0.33149 0.11116-0.75685 0.13436-1.2759 0.02356-0.53112 0.05213-0.88842 0.08578-1.0723 0.03365-0.18388 0.09751-0.30592 0.19224-0.36587 0.09472-0.06 0.25999-0.10047 0.49506-0.12144 0.15802-0.0126 0.28706-0.0793 0.38757-0.19947 0.10456-0.11998 0.16006-0.28848 0.1664-0.50591 0.01396-0.47916-0.2758-0.73272-0.8692-0.76119-0.07115-3e-3 -0.14049-5e-3 -0.20826-3e-3zm5.6214 0.262c-0.58533-0.0281-0.8847 0.19729-0.89865 0.67645-0.0063 0.21743 0.03914 0.39123 0.13643 0.52089 0.10132 0.12984 0.2264 0.20832 0.37517 0.23565 0.17703 0.0286 0.30748 0.063 0.39119 0.10335 0.08787 0.0365 0.15424 0.10247 0.19999 0.19741 0.04574 0.0949 0.07407 0.24552 0.08423 0.45165 0.01028 0.2021 0.0096 0.49442-0.0016 0.87695-0.01149 0.3946-0.0035 0.73939 0.02429 1.0351 0.02789 0.29165 0.08329 0.54662 0.16588 0.76429 0.08259 0.21767 0.19058 0.40408 0.32349 0.55966 0.13291 0.15556 0.30639 0.30687 0.52038 0.45423-0.31242 0.17856-0.55068 0.37686-0.71468 0.5948-0.164 0.21793-0.27902 0.48291-0.34468 0.79426-0.06567 0.31137-0.11062 0.74439-0.13488 1.2997-0.01091 0.37447-0.02731 0.65809-0.04909 0.85059-0.01786 0.19673-0.0525 0.34401-0.10387 0.44235-0.04734 0.0985-0.11581 0.16385-0.20567 0.19585-0.08986 0.032-0.22589 0.0559-0.40824 0.0713-0.10127 7e-3 -0.19346 0.0391-0.27595 0.0956-0.07846 0.0567-0.14321 0.13803-0.19482 0.24443-0.05172 0.11042-0.07985 0.23248-0.08372 0.36535-0.0069 0.23757 0.06253 0.42198 0.20826 0.55397 0.14976 0.13218 0.36597 0.20504 0.64854 0.21859 0.57322 0.0275 1.0366-0.11954 1.3896-0.44131 0.3569-0.31755 0.54945-0.75389 0.57774-1.309 0.02924-0.58729 0.05342-1.0759 0.07286-1.4661 0.02349-0.38999 0.0622-0.68031 0.11627-0.87126 0.05823-0.19478 0.15171-0.35362 0.2806-0.47646 0.13305-0.12668 0.34335-0.26985 0.63097-0.42943 0.2342-0.12989 0.35604-0.34603 0.36484-0.64802 0.0062-0.21341-0.03361-0.37474-0.11937-0.48369-0.08172-0.10876-0.2099-0.21958-0.38447-0.3328-0.17445-0.11723-0.32223-0.24725-0.44338-0.39016-0.12103-0.14693-0.2098-0.35488-0.26665-0.62373-0.02842-0.13443-0.03539-0.87067-0.02067-2.2086 0.0064-0.35856-0.06945-0.68058-0.22686-0.96635-0.15326-0.28961-0.37092-0.51578-0.65319-0.67851-0.27812-0.16657-0.60488-0.25898-0.9803-0.27699zm16.907 2.9854a1.2825 1.8621 8.2283 0 1 1.1498 1.8521 1.2825 1.8621 8.2283 0 1-1.4289 1.8521 1.2825 1.8621 8.2283 0 1-1.1498-1.8521 1.2825 1.8621 8.2283 0 1 1.4289-1.8521zm-3.6453 8.3013a1.2825 1.8621 8.2283 0 1 1.1498 1.8521 1.2825 1.8621 8.2283 0 1-1.4289 1.8521 1.2825 1.8621 8.2283 0 1-1.1498-1.8521 1.2825 1.8621 8.2283 0 1 1.4289-1.8521z"
       style="id:icon;fill:#373435;fill-opacity:1" /></g></svg>
