<?xml version="1.0" encoding="UTF-8" standalone="no"?>
<!-- Created with Inkscape (http://www.inkscape.org/) -->

<svg
   width="361.45706mm"
   height="99.750465mm"
   viewBox="0 0 361.45706 99.750467"
   version="1.1"
   id="svg1"
   xml:space="preserve"
   inkscape:version="1.4.2 (f4327f4, 2025-05-13)"
   sodipodi:docname="pattern.svg"
   xmlns:inkscape="http://www.inkscape.org/namespaces/inkscape"
   xmlns:sodipodi="http://sodipodi.sourceforge.net/DTD/sodipodi-0.dtd"
   xmlns="http://www.w3.org/2000/svg"
   xmlns:svg="http://www.w3.org/2000/svg"><sodipodi:namedview
     id="namedview1"
     pagecolor="#000000"
     bordercolor="#000000"
     borderopacity="0.25"
     inkscape:showpageshadow="2"
     inkscape:pageopacity="0.0"
     inkscape:pagecheckerboard="0"
     inkscape:deskcolor="#d1d1d1"
     inkscape:document-units="mm"
     inkscape:zoom="0.72632092"
     inkscape:cx="538.32953"
     inkscape:cy="75.724102"
     inkscape:window-width="1920"
     inkscape:window-height="991"
     inkscape:window-x="-9"
     inkscape:window-y="-9"
     inkscape:window-maximized="1"
     inkscape:current-layer="layer1" /><defs
     id="defs1" /><g
     inkscape:label="Camada 1"
     inkscape:groupmode="layer"
     id="layer1"
     transform="translate(-22.328563,-48.938113)"><path
       id="path165"
       style="fill:none;stroke:#ffffff;stroke-width:0.5;stroke-dasharray:none;stroke-opacity:0.2"
       d="m 28.011973,49.29109 -5.330424,5.975863 5.976379,5.330424 5.330424,-5.97638 z m 104.227747,0 -5.97638,5.329907 5.33043,5.97638 5.97586,-5.329908 z m 83.07555,0 -5.33042,5.975863 5.97638,5.330424 5.33042,-5.97638 z m 104.22775,0 -5.97638,5.329907 5.33042,5.97638 5.97587,-5.329908 z m -173.94235,1.181323 -5.97638,5.330424 5.33042,5.97638 5.97638,-5.330424 z m 187.30329,0 -5.97638,5.330424 5.33043,5.97638 5.97638,-5.330424 z m -244.476553,1.74718 -5.330424,5.97638 5.976379,5.329907 5.330424,-5.976379 z m 187.303303,0 -5.33043,5.97638 5.97638,5.329907 5.33043,-5.976379 z m -200.14748,0.884184 -5.330424,5.97638 5.976379,5.330424 5.330424,-5.97638 z m 187.3033,0 -5.33042,5.97638 5.97637,5.330424 5.33043,-5.97638 z m -200.648739,0.707451 -5.329907,5.976379 5.975862,5.330424 5.330424,-5.976379 z m 187.303299,0 -5.32991,5.976379 5.97587,5.330424 5.33042,-5.976379 z m -200.272017,1.16582 -5.330424,5.976379 5.97638,5.330424 5.330424,-5.976379 z m 187.303297,0 -5.33042,5.976379 5.97638,5.330424 5.33042,-5.976379 z m -111.55443,0.60203 -5.97638,5.329908 5.33043,5.976379 5.97638,-5.329907 z m 187.3033,0 -5.97638,5.329908 5.33042,5.976379 5.97638,-5.329907 z m -276.786729,0.143661 -5.329907,5.976379 5.976379,5.330424 5.329908,-5.976379 z m 187.303299,0 -5.32991,5.976379 5.97638,5.330424 5.32991,-5.976379 z m -84.37263,0.709 -5.97638,5.330424 5.33043,5.97638 5.97638,-5.330424 z m 187.3033,0 -5.97638,5.330424 5.33042,5.97638 5.97638,-5.330424 z m -230.296542,1.755966 -5.329907,5.975862 5.975862,5.330424 5.330427,-5.976379 z m 187.303302,0 -5.32991,5.975862 5.97586,5.330424 5.33043,-5.976379 z m -118.00055,0.716235 -5.97586,5.329907 5.3299,5.97638 5.97638,-5.329908 z m 187.30329,0 -5.97586,5.329907 5.32991,5.97638 5.97638,-5.329908 z m -269.608349,0.138493 -5.330424,5.975862 5.976379,5.330424 5.330424,-5.976379 z m 187.303299,0 -5.33042,5.975862 5.97638,5.330424 5.33042,-5.976379 z m -200.358833,0.868164 -5.330424,5.976379 5.976379,5.330424 5.330424,-5.976379 z m 187.303303,0 -5.33043,5.976379 5.97638,5.330424 5.33043,-5.976379 z m -65.91794,1.027844 -5.97638,5.329907 5.3299,5.97638 5.97638,-5.329907 z m 187.30329,0 -5.97638,5.329907 5.32991,5.97638 5.97638,-5.329907 z m -321.65737,0.138493 -5.330424,5.975863 5.976379,5.330424 5.330424,-5.97638 z m 187.3033,0 -5.33042,5.975863 5.97637,5.330424 5.33043,-5.97638 z m -200.504045,1.07797 -5.330424,5.97638 5.976379,5.330424 5.330424,-5.97638 z m 187.303295,0 -5.33042,5.97638 5.97638,5.330424 5.33042,-5.97638 z m -85.79217,1.672766 -5.97638,5.329908 5.33042,5.976379 5.97638,-5.329907 z m 187.30329,0 -5.97638,5.329908 5.33043,5.976379 5.97638,-5.329907 z m -174.32889,1.043864 -5.97638,5.330424 5.33042,5.97638 5.97638,-5.330424 z m 187.30329,0 -5.97638,5.330424 5.33043,5.97638 5.97638,-5.330424 z m -255.613856,0.304375 -5.330424,5.976379 5.97638,5.330424 5.330424,-5.976379 z m 187.303296,0 -5.33042,5.976379 5.97638,5.330424 5.33042,-5.976379 z m -92.96848,1.730127 -5.97638,5.330423 5.33042,5.97638 5.97638,-5.330424 z m 187.30329,0 -5.97637,5.330423 5.33042,5.97638 5.97638,-5.330424 z m -307.662357,0.304374 -5.330424,5.976379 5.976379,5.330424 5.330424,-5.976379 z m 187.303297,0 -5.33042,5.976379 5.97638,5.330424 5.33042,-5.976379 z m -200.277699,1.04438 -5.330424,5.97638 5.97638,5.329907 5.330424,-5.976379 z m 187.303299,0 -5.33042,5.97638 5.97638,5.329907 5.33042,-5.976379 z m -100.14479,1.67225 -5.97638,5.330424 5.33042,5.976379 5.97638,-5.330424 z m 187.3033,0 -5.97638,5.330424 5.33042,5.976379 5.97638,-5.330424 z m -174.10256,1.078487 -5.97638,5.330424 5.33043,5.975863 5.97638,-5.329908 z m 187.3033,0 -5.97638,5.330424 5.33042,5.975863 5.97638,-5.329908 z m -241.619364,0.138493 -5.329908,5.976379 5.97638,5.329907 5.329912,-5.976379 z m 187.303304,0 -5.32991,5.976379 5.97638,5.329907 5.3299,-5.976379 z m -120.01852,1.027327 -5.97638,5.330424 5.33043,5.97638 5.97638,-5.330424 z m 187.3033,0 -5.97638,5.330424 5.33042,5.97638 5.97638,-5.330424 z m -174.24776,0.868681 -5.97638,5.330424 5.33042,5.975863 5.97638,-5.329908 z m 187.30329,0 -5.97638,5.330424 5.33043,5.975863 5.97638,-5.329908 z m -293.667866,0.138493 -5.329907,5.976379 5.975863,5.329907 5.330424,-5.976379 z m 187.303296,0 -5.3299,5.976379 5.97586,5.329907 5.33042,-5.976379 z m -67.93642,0.716235 -5.97586,5.330424 5.32991,5.975863 5.97638,-5.329907 z m 187.3033,0 -5.97586,5.330424 5.3299,5.975863 5.97638,-5.329907 z m -332.979681,1.755449 -5.330424,5.976379 5.976379,5.330424 5.330424,-5.976379 z m 187.303301,0 -5.33043,5.976379 5.97638,5.330424 5.33043,-5.976379 z m -101.56383,0.709 -5.97638,5.330424 5.32991,5.97638 5.97638,-5.330424 z m 187.3033,0 -5.97638,5.330424 5.32991,5.97638 5.97638,-5.330424 z m -286.490012,0.144178 -5.330424,5.976379 5.976379,5.329907 5.330424,-5.976379 z m 187.303302,0 -5.33043,5.976379 5.97638,5.329907 5.33043,-5.976379 z m -74.38254,0.601513 -5.97638,5.330424 5.33042,5.97638 5.97638,-5.330424 z m 187.30329,0 -5.97638,5.330424 5.33043,5.97638 5.97638,-5.330424 z m -174.33457,1.16582 -5.97587,5.330424 5.32991,5.97638 5.97638,-5.330424 z m 187.30329,0 -5.97586,5.330424 5.32991,5.97638 5.97638,-5.330424 z m -173.95786,0.707451 -5.97638,5.330424 5.33043,5.976379 5.97638,-5.330424 z m 187.3033,0 -5.97638,5.330424 5.33042,5.976379 5.97638,-5.330424 z m -174.45912,0.8847 -5.97638,5.329908 5.33043,5.976379 5.97638,-5.329907 z m 187.3033,0 -5.97638,5.329908 5.33042,5.976379 5.97638,-5.329907 z m -318.799669,1.746664 -5.330424,5.976379 5.976379,5.330424 5.330424,-5.976379 z m 187.303299,0 -5.33042,5.976379 5.97638,5.330424 5.33042,-5.976379 z m -200.664241,1.18184 -5.330424,5.976379 5.97638,5.329907 5.329907,-5.976379 z m 84.441881,0 -5.97638,5.330424 5.33042,5.975862 5.97638,-5.329907 z m 102.86142,0 -5.33042,5.976379 5.97637,5.329907 5.32991,-5.976379 z m 84.44187,0 -5.97638,5.330424 5.33043,5.975862 5.97638,-5.329907 z" /><path
       id="path165-8"
       style="fill:none;stroke:#ffffff;stroke-width:0.5;stroke-dasharray:none;stroke-opacity:0.2"
       d="m 378.10223,103.52956 5.33042,5.97586 -5.97638,5.33042 -5.33042,-5.97638 z m -104.22774,0 5.97637,5.3299 -5.33042,5.97638 -5.97586,-5.32991 z m -83.07555,0 5.33042,5.97586 -5.97638,5.33042 -5.33042,-5.9769 z m -104.22776,0 5.97638,5.3299 -5.33043,5.97638 -5.97586,-5.32991 z m 173.94236,1.18132 5.97638,5.33042 -5.33042,5.97638 -5.97638,-5.33042 z m -187.3033,0 5.97638,5.33042 -5.33043,5.97638 -5.97638,-5.33042 z m 244.47655,1.74718 5.33043,5.97638 -5.97638,5.3299 -5.33043,-5.97638 z m -187.30329,0 5.33043,5.97638 -5.97638,5.3299 -5.33043,-5.97638 z m 200.14747,0.88418 5.33042,5.97638 -5.97637,5.33042 -5.33043,-5.97637 z m -187.30329,0 5.33042,5.97638 -5.97638,5.33042 -5.33042,-5.97637 z m 200.64873,0.70693 5.32991,5.9769 -5.97587,5.33043 -5.33042,-5.97638 z m -187.30329,0 5.32991,5.9769 -5.97587,5.33043 -5.33042,-5.97638 z m 200.27201,1.16634 5.33042,5.97638 -5.97638,5.33043 -5.33042,-5.97638 z m -187.30329,0 5.33042,5.97638 -5.97638,5.33043 -5.33042,-5.97638 z m 111.55443,0.60203 5.97638,5.32991 -5.33043,5.97638 -5.97638,-5.32991 z m -187.30331,0 5.976385,5.32991 -5.330425,5.97638 -5.97638,-5.32991 z m 276.78673,0.14366 5.32991,5.97638 -5.97638,5.33043 -5.32991,-5.97638 z m -187.30329,0 5.3299,5.97638 -5.97637,5.33043 -5.32991,-5.97638 z m 84.37263,0.709 5.97637,5.33043 -5.33042,5.97638 -5.97638,-5.33043 z m -187.30331,0 5.97638,5.33043 -5.33043,5.97638 -5.97637,-5.33043 z m 42.99325,1.75545 5.32991,5.97638 -5.97586,5.33043 -5.33043,-5.97638 z m 187.30329,5.2e-4 5.32991,5.97586 -5.97586,5.33043 -5.33042,-5.97638 z m -69.30274,0.71623 5.97586,5.32991 -5.3299,5.97638 -5.97638,-5.32991 z m -187.30331,0 5.97587,5.32991 -5.32991,5.97638 -5.97638,-5.32991 z m 269.60836,0.1385 5.33042,5.97586 -5.97638,5.33042 -5.33042,-5.97638 z m -187.30329,0 5.33042,5.97534 -5.97638,5.33094 -5.33042,-5.97638 z m 13.05553,0.86764 5.33043,5.9769 -5.97638,5.33042 -5.33043,-5.97637 z m 187.30329,5.2e-4 5.33043,5.97638 -5.97638,5.33042 -5.33043,-5.97637 z m -121.38535,1.02785 5.97638,5.3299 -5.32991,5.97638 -5.97638,-5.32991 z m -187.3033,0 5.97638,5.3299 -5.32991,5.97638 -5.97638,-5.32991 z m 321.65737,0.13849 5.33042,5.97586 -5.97637,5.33042 -5.33043,-5.97637 z m -187.30329,0 5.33042,5.97586 -5.97638,5.33042 -5.33042,-5.97637 z m 13.20074,1.07745 5.33043,5.9769 -5.97638,5.33042 -5.33043,-5.97638 z m 187.3033,5.2e-4 5.33042,5.97638 -5.97638,5.33042 -5.33042,-5.97638 z m -101.51112,1.67276 5.97638,5.32991 -5.33042,5.97638 -5.97638,-5.32991 z m -187.3033,0 5.97638,5.32991 -5.33043,5.97638 -5.97638,-5.32991 z m 174.3289,1.04387 5.97638,5.33042 -5.33042,5.97638 -5.97638,-5.33042 z m -187.3033,0 5.97637,5.33042 -5.33042,5.97638 -5.97638,-5.33042 z m 255.61386,0.30437 5.33042,5.97638 -5.97638,5.33043 -5.33042,-5.97638 z m -187.3033,0 5.33043,5.97638 -5.97638,5.33043 -5.33042,-5.97638 z m 92.96849,1.73013 5.97638,5.33042 -5.33042,5.97638 -5.97638,-5.33042 z m -187.30331,0 5.97638,5.33042 -5.33042,5.97638 -5.97638,-5.33042 z m 307.66237,0.30437 5.33042,5.97638 -5.97638,5.33043 -5.33042,-5.97638 z m -187.30329,0 5.33042,5.97638 -5.97638,5.33043 -5.33042,-5.97638 z m 200.27769,1.04438 5.33042,5.97638 -5.97638,5.32939 -5.33042,-5.97586 z m -187.30329,0 5.33042,5.97638 -5.97638,5.32939 -5.33042,-5.97586 z m 100.14479,1.67225 5.97638,5.33043 -5.33043,5.97586 -5.97637,-5.32991 z m -187.30331,0 5.97638,5.33043 -5.33042,5.97586 -5.97638,-5.32991 z m 174.10256,1.07849 5.97638,5.33043 -5.33042,5.97534 -5.97638,-5.32939 z m -187.3033,0 5.97638,5.33043 -5.33043,5.97534 -5.97638,-5.32939 z m 241.61936,0.13849 5.32991,5.97638 -5.97638,5.32939 -5.3299,-5.97586 z m -187.30329,0 5.32991,5.97638 -5.97638,5.32939 -5.32991,-5.97586 z m 120.01852,1.02733 5.97638,5.33043 -5.33043,5.97586 -5.97638,-5.32991 z m -187.30331,0 5.97638,5.33043 -5.33042,5.97586 -5.97638,-5.32991 z m 174.24777,0.86868 5.97638,5.33043 -5.33042,5.97534 -5.97638,-5.32991 z m -187.3033,0 5.97638,5.33043 -5.33043,5.97534 -5.97638,-5.32991 z m 293.66787,0.1385 5.3299,5.97637 -5.97586,5.32939 -5.33042,-5.97586 z m -187.3033,0 5.32991,5.97637 -5.97586,5.32939 -5.33042,-5.97586 z m 67.93643,0.71623 5.97586,5.33042 -5.32991,5.97535 -5.97638,-5.32991 z m -187.30331,0 5.97586,5.33042 -5.3299,5.97535 -5.97638,-5.32991 z m 145.67639,1.75493 5.33042,5.97638 -5.97638,5.33043 -5.33042,-5.97638 z m 187.30329,5.2e-4 5.33043,5.97586 -5.97638,5.33043 -5.33043,-5.97638 z m -85.73946,0.709 5.97638,5.32991 -5.32991,5.97638 -5.97638,-5.33043 z m -187.30331,0 5.97638,5.32991 -5.32991,5.97638 -5.97638,-5.33043 z m 286.49001,0.14418 5.33043,5.97586 -5.97638,5.32991 -5.33043,-5.97638 z m -187.30329,0 5.33043,5.97586 -5.97638,5.32991 -5.33043,-5.97638 z m 74.38254,0.60151 5.97638,5.32991 -5.33042,5.97638 -5.97638,-5.33043 z m -187.3033,0 5.97637,5.32991 -5.33042,5.97638 -5.97638,-5.33043 z m 174.33458,1.16582 5.97587,5.32991 -5.32991,5.97638 -5.97638,-5.33043 z m -187.3033,0 5.97586,5.32991 -5.32991,5.97638 -5.97638,-5.33043 z m 173.95786,0.70693 5.97638,5.33043 -5.33042,5.97638 -5.97638,-5.33043 z m -187.3033,0 5.97638,5.33043 -5.33043,5.97638 -5.97637,-5.33043 z m 174.45913,0.8847 5.97638,5.32991 -5.33043,5.97638 -5.97638,-5.32991 z m -187.30331,0 5.97638,5.32991 -5.33042,5.97638 -5.97638,-5.32991 z m 318.79967,1.74667 5.33042,5.97638 -5.97638,5.33042 -5.33042,-5.97638 z m -187.30329,0 5.33042,5.97638 -5.97638,5.33042 -5.33042,-5.97638 z m 200.66423,1.18184 5.33043,5.97638 -5.97638,5.3299 -5.32991,-5.97637 z m -84.44187,0 5.97638,5.33042 -5.33042,5.97586 -5.97638,-5.3299 z m -102.86142,0 5.33042,5.97638 -5.97638,5.3299 -5.3299,-5.97637 z m -84.44188,0 5.97638,5.33042 -5.33043,5.97586 -5.97638,-5.3299 z" /></g></svg>
