<svg width="567.51mm" height="512mm" version="1.1" viewBox="0 0 567.51 512" xml:space="preserve" xmlns="http://www.w3.org/2000/svg"><g transform="translate(-34.988 -56.575)"><path d="m284.48 566.51c-6.2104-2.8303-11.956-9.7591-13.641-16.45-0.74333-2.952-1.309-16.464-1.309-31.267 0-24.486-0.13111-26.034-2.1594-25.504-1.1877 0.31049-23.514 12.958-49.615 28.105l-47.455 27.54-62.686 0.3314c-40.486 0.21411-63.828-0.10274-65.91-0.89442-7.0667-2.6867-6.7165 7.7146-6.7165-199.48 0-137.55 0.37299-190.97 1.3529-193.78 1.2107-3.4731 3.3284-4.839 20.147-12.994 10.336-5.0122 53.975-26.214 96.974-47.116l78.181-38.003 63.747-0.3434c35.061-0.18888 64.949-0.04719 66.419 0.3149 5.5393 1.365 5.7125 2.9568 6.3493 58.363l0.60138 52.321 107.65 0.60139c120.31 0.67209 110.77-0.0812 119.36 9.4263 3.0206 3.3434 4.71 6.6963 5.6461 11.206 0.95296 4.5905 1.243 57.287 1.0119 183.84l-0.32413 177.41-3.0069 5.3591c-1.6539 2.9475-5.3538 7.0069-8.2221 9.0208l-5.2152 3.6618-148.14 0.28185c-142.06 0.27048-148.34 0.19047-153.04-1.9495zm296.72-18.964c1.3787-1.6611 1.7079-30.55 1.9977-175.3 0.19093-95.324 0.0364-175.06-0.34776-177.19-1.4663-8.1672 10.41-7.556-146.82-7.556-140.84 0-142.47 0.0273-144.85 2.4056-2.3836 2.3836-2.4056 4.0093-2.4056 178.34 0 157.29 0.19843 176.22 1.8724 178.61l1.8724 2.6732h143.52c132.03 0 143.65-0.15911 145.17-1.9888zm-264.22-44.263c-3.9721-3.9721-3.7752-8.4377 0.56356-12.776l3.5158-3.5158h114.8c112.67 0 114.85 0.0455 117.83 2.3865 5.3161 4.1816 5.2252 11.151-0.19957 15.316-1.4689 1.1278-28.581 1.474-117.73 1.5035l-115.82 0.0364zm3.491-40.338c-3.3608-1.3562-6.4433-5.8309-6.4433-9.3533 0-1.5367 1.3285-4.1225 2.9523-5.7463l2.9523-2.9523h115.6c71.705 0 116.42 0.43914 117.76 1.1568 1.1888 0.63625 2.8259 2.7608 3.6379 4.7213 1.8337 4.427-0.21411 9.5132-4.7548 11.81-2.363 1.1952-27.22 1.5084-116.07 1.4624-62.184-0.0318-114.22-0.52656-115.64-1.0987zm-3.491-45.06c-3.9721-3.9721-3.7752-8.4376 0.56356-12.776l3.5158-3.5158 114.06 0.0182c89.527 0.0136 114.7 0.34504 117.06 1.5387 3.6766 1.8597 6.4358 7.2472 5.3934 10.531-0.42369 1.3348-1.9125 3.4911-3.3087 4.7918-2.4874 2.3174-4.8656 2.3648-118.43 2.3648h-115.9zm3.491-40.338c-3.3608-1.3562-6.4433-5.8309-6.4433-9.3532 0-1.5367 1.3285-4.1225 2.9523-5.7462l2.9523-2.9523h115.6c71.705 0 116.42 0.43914 117.76 1.1568 1.1888 0.63624 2.8259 2.7608 3.6379 4.7212 1.8337 4.427-0.21411 9.5132-4.7548 11.81-2.363 1.1952-27.22 1.5084-116.07 1.4624-62.184-0.0318-114.22-0.52661-115.64-1.0987zm2.5524-63.672c-1.9984-0.47928-5.0559-1.8034-6.7944-2.9424-5.8312-3.8208-6.411-7.3201-6.411-38.692 0-32.069 0.20593-33.022 8.1841-37.886 3.7386-2.2796 6.9669-2.3436 118.11-2.3436 111.21 0 114.37 0.0627 118.11 2.3479 7.3936 4.5082 7.7308 6.3644 7.3326 40.372l-0.35822 30.598-3.767 3.7649c-2.4103 2.409-5.6592 4.1304-9.0208 4.7798-6.3765 1.2317-220.25 1.2336-225.39 2e-3zm219.26-40.679-0.32821-21.349-212.29-0.61442v43.313h212.95zm-386.12 75.775 0.30457-180.72h-50.392c-44.841 0-50.472 0.20957-51.122 1.9025-1.3466 3.5091-0.83323 355.29 0.52215 357.82 1.2136 2.2677 2.7788 2.3301 50.817 2.0258l49.565-0.31413zm-74.931 133.86-2.9523-2.9523v-130.46c0-71.752 0.33622-131.33 0.74714-132.4 1.6998-4.4297 6.8082-5.4664 26.936-5.4664 19.507 0 22.968 0.62415 26.103 4.7069 1.1306 1.4725 1.474 31.797 1.5035 132.77l0.0382 130.86-2.9523 2.9523c-2.9169 2.9169-3.2128 2.9523-24.712 2.9523-21.499 0-21.795-0.0364-24.712-2.9523zm32.53-134.16v-117.27h-15.636l-0.31012 116.07c-0.17056 63.837-0.04228 116.77 0.28512 117.63 0.42173 1.1061 2.7911 1.4567 8.1282 1.2028l7.5329-0.35867zm111.86 145.8 43.3-25.073 0.60139-141.25 0.60138-141.25 3.3396-5.6812c2.1656-3.6841 5.3368-6.8552 9.0208-9.0208l5.6812-3.3396 60.139-1.2028 0.3164-41.828c0.26821-35.499 0.0541-41.929-1.4154-42.493-2.2206-0.85213-166.59 78.261-169.39 81.531-1.9837 2.314-2.1049 12.524-2.1049 177.41 0 119.03 0.40059 175.7 1.2533 177.29 0.95642 1.7871 1.7399 2.0627 3.3076 1.1635 1.1299-0.64807 21.539-12.461 45.354-26.251zm12.93-381.48c40.188-19.477 73.069-35.85 73.069-36.384 0-0.53436-16.442-0.97156-36.537-0.97156h-36.537l-57.581 27.816c-31.669 15.299-64.792 31.252-73.606 35.453-9.6923 4.6188-15.713 8.1434-15.234 8.9184 0.53987 0.87352 12.34 1.1699 37.074 0.93118l36.282-0.35017z"/></g></svg>
