<!-- Created with Inkscape (http://www.inkscape.org/) -->
<svg width="512.1mm" height="512mm" version="1.1" viewBox="0 0 512.1 512" xml:space="preserve" xmlns="http://www.w3.org/2000/svg"><g transform="translate(62.169 9.1485)"><path d="m383.88 501.96c-8.1314-1.5577-14.698-4.2375-21.331-8.7053-7.4922-5.0464-107.09-104.82-109.4-109.6-3.5747-7.3836-2.0714-13.226 5.4802-21.3 2.5118-2.6853 4.5669-5.2952 4.5669-5.7998 0-1.1791-18.275-19.406-19.457-19.406-0.4902 0-5.1474 2.7571-10.349 6.127-80.839 52.368-189.17 35.868-251.1-38.245-27.084-32.413-42.402-72.239-44.275-115.11-3.0695-70.281 33.448-136.96 94.783-173.06 49.568-29.178 112.14-34.158 165.76-13.194 46.172 18.052 82.451 51.784 103.68 96.399 25.252 53.072 24.92 113.77-0.90924 166.47-3.2394 6.6102-8.2341 15.598-11.099 19.972-2.8651 4.3746-5.451 8.5838-5.7464 9.3537-0.53627 1.3975 17.294 20.25 19.152 20.25 0.50463 0 3.1145-2.0551 5.7998-4.5669 8.0751-7.5533 13.919-9.056 21.3-5.4768 4.834 2.3444 104.61 101.97 109.69 109.52 18.072 26.881 9.567 63.65-18.486 79.916-10.928 6.3363-25.626 8.8246-38.058 6.443zm-0.63689-66.02c26.48-26.491 30.264-30.654 29.358-32.3-1.4461-2.6248-59.622-60.479-60.816-60.479-0.53268 0-14.648 13.685-31.367 30.411-26.48 26.491-30.264 30.654-29.358 32.3 1.4461 2.6248 59.622 60.479 60.816 60.479 0.53268 0 14.648-13.685 31.367-30.411zm-238.23-74.809c71.597-6.5429 132.07-54.305 154.63-122.13 15.282-45.941 11.562-94.74-10.535-138.18-55.781-109.65-203.07-131.86-288.34-43.477-15.351 15.911-25.173 29.977-33.83 48.448-41.022 87.529-5.7275 191.63 79.927 235.75 31.054 15.995 64.471 22.663 98.151 19.585zm-21.315-60.115c-2.0836-0.49664-5.1047-1.5837-6.7137-2.4157-4.0664-2.1028-10.03-8.4509-10.03-10.677 0-1.7434 1.2917-1.8494 22.535-1.8494 25.403 0 25.283-0.0435 18.966 6.9494-6.0948 6.7463-16.242 10.022-24.757 7.9929zm-30.657-29.35c-1.6942-1.8034-2.167-3.3389-1.9273-6.2596l0.31767-3.87 36.939-0.26271c26.431-0.18813 37.329 0.0606 38.309 0.87377 2.0159 1.673 1.667 6.2524-0.70619 9.2694l-2.0758 2.6389h-68.612zm-1.7694-24.206c-0.33382-0.86995-0.18097-2.0077 0.33966-2.5283 0.57025-0.57026 15.854-0.84213 38.442-0.68382 36.74 0.2574 37.495 0.3032 37.495 2.2658 0 1.9631-0.75517 2.0083-37.835 2.2655-33.706 0.23393-37.901 0.0897-38.442-1.3192zm0.91095-16.132c-0.68856-0.27784-1.2618-1.4817-1.2739-2.6751-0.0486-4.7998-3.844-10.467-11.131-16.622-9.646-8.147-14.941-14.025-20.373-22.617-20.994-33.208-15.169-77.4 13.729-104.15 12.353-11.437 25.869-18.126 42.483-21.023 10.905-1.9016 16.882-1.8946 27.934 0.0341 52.991 9.2409 83.332 66.518 61.057 115.26-4.8839 10.688-10.431 18.208-20.115 27.268-4.7994 4.4904-9.1015 8.1643-9.5602 8.1643-1.2677 0-6.8637 10.232-6.8744 12.569-0.0182 3.9573-1.7889 4.4568-15.799 4.4568-7.3625 0-14.258-0.46654-15.324-1.0368-1.8456-0.98775-1.9365-2.3736-1.9219-29.295 8e-3 -15.542 0.34644-28.733 0.75116-29.314 0.4047-0.58063 2.7639-2.0858 5.2427-3.3448 5.9414-3.0177 9.2074-6.2103 11.93-11.663 8.8681-17.757-3.7657-38.501-23.448-38.501-14.805 0-26.465 11.685-26.519 26.575-0.0371 10.187 5.2968 18.633 15.009 23.768l4.499 2.3787 0.26581 29.396c0.2066 22.85-0.0163 29.576-1.0015 30.201-1.359 0.86264-27.473 1.0144-29.561 0.17185zm30.817-73.145c-7.4386-3.8572-10.242-13.193-6.0346-20.095 7.3008-11.974 24.887-8.299 26.75 5.5904 1.4747 10.995-10.846 19.621-20.715 14.504zm161 178.7c5.6363-5.6556 10.248-10.735 10.248-11.288 0-1.0728-17.138-18.49-18.193-18.49-0.34447 0-5.406 4.7794-11.247 10.621-5.8415 5.8415-10.621 10.903-10.621 11.247 0 1.0769 17.429 18.193 18.525 18.193 0.57215 0 5.6518-4.6273 11.288-10.283z"/></g></svg>
