<svg width="520.07mm" height="512mm" version="1.1" viewBox="0 0 520.07 512" xml:space="preserve" xmlns="http://www.w3.org/2000/svg"><g transform="translate(8.2142 -265.17)"><path d="m28.813 740.15-37.027-37.027v-194.53c0-124.92 0.38585-196.61 1.0788-200.34 2.6588-14.339 13.783-29.467 26.751-36.379 13.382-7.1325 0.38062-6.7027 202.75-6.7027 175.6 0 184 0.0922 190.91 2.0046 17.896 4.9625 31.456 18.492 36.89 36.806 1.3562 4.5715 1.7405 10.814 1.7405 28.275v22.408l-2.8461 2.2382c-2.7683 2.1767-3.9914 2.2382-44.825 2.2382h-41.979v174.38l46.715-46.553c43.662-43.512 47.123-46.703 52.966-48.847 18.535-6.7989 37.849 0.6979 46.365 17.993 3.1315 6.3611 3.5468 8.2329 3.5227 15.875-0.0523 16.218 3.9517 11.409-77.337 92.912l-72.177 72.367-0.29822 61.026c-0.32805 67.461 0.0584 63.746-7.4006 71.204-7.7107 7.7105 5.2048 7.0722-149.48 7.3898l-139.3 0.27671zm314.09 17.636 3.1572-3.1572v-101.14l-25.653 25.592-25.653 25.592-27.345 5.5519c-15.921 3.2325-28.471 5.2694-30.041 4.8752-1.6375-0.41198-3.247-1.9861-4.0988-4.0125-1.2528-2.9792-0.80029-6.2753 4.2382-30.861l5.6408-27.525 102.88-102.92 0.28285-121.51 0.28286-121.51 2.4282-6.4807c1.3356-3.5643 4.3955-9.2831 6.8-12.708l4.3717-6.228-324.67 0.55341-6.1459 3.0192c-8.8719 4.3569-16.439 13.021-19.212 21.998-2.1583 6.9874-2.185 9.4073-2.185 195.98v188.91h28.677c30.908 0 31.806 0.15372 37.21 5.9233l2.7003 2.8869 0.31821 30.158 0.31821 30.158h262.54zm-214.84-44.707c-3.1196-3.3208-3.0527-8.3432 0.15065-11.353 2.4559-2.3089 3.0902-2.3489 36.038-2.3489 32.294 0 33.644 0.0922 36.384 2.2382 3.9358 3.096 3.9358 8.6286 0 11.725-2.7409 2.1552-4.0882 2.2382-36.536 2.2382h-33.69zm-87.222-47.525c-3.7355-3.2132-3.9298-8.9452-0.39999-11.804 2.1887-1.7709 7.5433-1.897 80.491-1.897h78.146l2.2023 2.3643c2.7646 2.9669 2.8221 7.4326 0.13835 10.748l-2.0645 2.5488-155.56 0.55341zm-0.89683-48.157c-2.6813-2.9638-2.5331-8.4146 0.30437-11.253l2.3566-2.3581h156.75l2.0648 2.5488c2.677 3.3057 2.6342 8.2218-0.0953 10.951-2.1208 2.1214-3.6004 2.1614-80.841 2.1614-75.921 0-78.746-0.0615-80.537-2.0507zm129.35-48.245c-2.2358-2.2352-2.6434-3.437-2.1079-6.2108 0.36525-1.8908 1.6885-4.2892 2.9408-5.329 2.1146-1.7555 7.0752-1.8908 69.713-1.8908h67.436l2.6511 2.6502c3.3789 3.3789 3.3789 7.5202 0 10.899l-2.6511 2.6502h-135.21zm-132.14-3.7088c-2.099-2.0999-2.1601-3.6005-2.1601-52.847v-50.687l2.8461-2.2382c2.7852-2.1921 3.9026-2.2382 52.434-2.2382h49.589l5.3023 5.3004v49.588c0 48.532-0.0492 49.649-2.2385 52.434l-2.2385 2.847h-50.687c-49.247 0-50.748-0.0615-52.847-2.1614zm91.809-52.925v-38.884h-77.768v77.768h77.768zm42.518 10.631c-2.3012-1.1283-4.7137-5.1372-4.7137-7.8356 0-0.784 1.0072-2.7056 2.2385-4.2695l2.2385-2.847h136.86l2.2385 2.847c2.7907 3.548 2.8488 6.9622 0.17525 10.266l-2.0645 2.5488-67.333 0.21521c-45.094 0.15373-68.095-0.15372-69.64-0.91927zm-2.475-50.201c-2.9143-3.7048-2.8255-6.0721 0.36771-9.7849l2.6062-3.0314 65.711-0.30745c36.141-0.15373 66.817-0.0308 68.168 0.30745 6.4547 1.5864 8.8092 9.0141 4.2234 13.322l-2.4999 2.3489h-136.34zm-127.82-46.029c-4.5874-3.469-4.045-11.353 0.9371-13.623 1.9689-0.89775 38.144-1.2298 133.93-1.2298h131.23l2.6511 2.6502c1.4582 1.4573 2.6511 3.9104 2.6511 5.4495 0 1.5403-1.1929 3.9916-2.6511 5.4498l-2.6511 2.6502h-132.16c-104.05 0-132.54-0.27671-133.94-1.3497zm-0.35664-48.695c-3.7114-3.1922-3.8946-8.9336-0.37601-11.783 2.2084-1.7894 10.047-1.897 135-1.897h132.66l2.2385 2.847c2.9696 3.7755 2.8276 7.4646-0.4126 10.705l-2.6511 2.6502h-263.52zm3.1923-45.752c-5.9137-1.156-8.1534-9.2434-3.7733-13.624l2.3701-2.3704 129.31-0.31053c71.122-0.18447 130.9-0.027 132.83 0.31975 9.6915 1.7402 10.556 13.011 1.2043 15.693-3.5036 1.0054-256.85 1.2882-261.94 0.27671zm16.653 374.95c-0.16295-0.15373-9.4505-0.0135-20.642 0.31975l-20.348 0.60567 20.348 20.371 20.348 20.371 0.29515-20.69c0.16295-11.38 0.16295-20.819 0-20.976zm232.74-24.038 6.2127-6.173-29.148-29.088-12.522 12.391-3.0167 15.382c-1.6593 8.4601-3.2718 16.672-3.5836 18.249l-0.56694 2.8654 36.412-7.4541zm199.55-200.62c8.2912-13.213-1.4216-30.713-17.054-30.728-3.5555-3e-3 -7.2273 0.78399-9.721 2.0814-2.2385 1.1652-43.814 41.928-94.188 92.343l-90.181 90.255 14.564 14.594 14.564 14.594 89.976-89.926c49.487-49.459 90.905-91.406 92.04-93.216zm-57.449-157.38c-0.34649-15.629-0.65886-18.1-2.8544-22.559-3.9703-8.0647-9.3481-13.486-17.22-17.359-6.3848-3.1418-8.2341-3.5513-15.886-3.5178-6.9974 0.0304-9.826 0.57801-14.731 2.847-8.5078 3.9363-14.383 9.6554-18.492 18.001-3.4317 6.9702-3.5306 7.5685-3.9063 23.646l-0.38555 16.495h73.864z" style="fill:#000000;stroke-width:30.745"/></g></svg>
