<svg width="512" height="512" version="1.1" viewBox="0 0 135.47 135.47" xml:space="preserve" xmlns="http://www.w3.org/2000/svg"><g transform="translate(-55.776 -73.062)"><path d="m123.51 73.062a67.733 67.733 0 0 0-67.733 67.733 67.733 67.733 0 0 0 67.733 67.733 67.733 67.733 0 0 0 67.733-67.733 67.733 67.733 0 0 0-67.733-67.733zm-15.425 13.052c4.1361 0.03866 9.6682 3.9655 9.6767 6.8688 4.6e-4 0.15706 0.16198 0.7543 0.35912 1.3273 0.19713 0.57297 0.35842 1.2667 0.35842 1.5415 0 0.91088 0.63586 1.3675 2.3297 1.6727 1.5942 0.28734 2.774 0.56365 5.475 1.2825 0.8921 0.23743 1.8312 0.43158 2.0868 0.43158 0.25567 0 0.9921 0.16293 1.6364 0.36192 0.64426 0.19899 1.7616 0.47636 2.483 0.61639 1.2512 0.24287 2.2017 0.46236 4.8061 1.1096 0.64068 0.15921 1.5681 0.37 2.0609 0.46833 0.49283 0.0983 1.3396 0.29476 1.8817 0.43682 0.54212 0.14206 1.5905 0.37436 2.3297 0.51593 0.73925 0.14158 1.7155 0.38036 2.1694 0.53064 0.4539 0.15027 1.341 0.35506 1.9713 0.45538 0.63032 0.10031 1.6585 0.33983 2.2849 0.53203 1.8946 0.58133 2.7473 0.49055 3.6535-0.38888 5.0381-4.8893 14.134 0.28317 11.068 6.2937-0.19714 0.38641-0.35842 0.83286-0.35842 0.99196 0 1.5802-3.3788 3.3985-6.3154 3.3987-2.2831 1.2e-4 -2.2833 0-3.8222 1.8817-0.84644 1.0349-1.8557 2.2542-2.2429 2.7095-0.38721 0.45531-1.0058 1.2092-1.3749 1.6752-0.61324 0.77429-5.5804 6.8705-6.2836 7.712-4.1126 4.9212-4.2169 5.0822-3.6822 5.6917 0.19371 0.22079 0.58382 0.76437 0.867 1.2079 0.28318 0.44354 0.70277 1.0932 0.93211 1.4435 0.22934 0.35027 0.41856 0.75351 0.42072 0.89605 2e-3 0.14256 0.17478 0.62192 0.38328 1.0655 0.90257 1.92 0.92422 7.6213 0.0371 9.767-0.57278 1.3854-1.2692 2.7319-1.748 3.3809-0.78352 1.0618-3.0905 3.3872-3.6941 3.7235-0.34498 0.19222-1.1027 0.6301-1.684 0.97271s-1.428 0.71357-1.8817 0.8243c-0.45373 0.11074-1.0669 0.32654-1.3626 0.47954-0.92697 0.47962-5.3636 0.40458-7.1684-0.12111-11.852-3.4522-14.73-18.282-5.0347-25.942 0.81473-0.64367 0.89608-1.2495 0.31607-2.3581-0.36738-0.7022-1.0021-2.075-1.5954-3.4509-0.39031-0.90514-1.08-1.3965-1.5726-1.1208-1.1262 0.63023-4.9372 4.983-5.6868 6.4954-0.17151 0.34601-0.54911 1.0322-0.839 1.525-0.28988 0.49283-0.66573 1.2993-0.8355 1.7921-0.16978 0.49283-0.4115 1.0573-0.53693 1.2545-0.12542 0.19713-0.28521 0.68101-0.35528 1.0753-0.0701 0.39427-0.2699 1.0828-0.44382 1.53-0.17392 0.44718-0.36965 1.294-0.43508 1.8817-0.0654 0.58777-0.28405 1.9549-0.48583 3.0378-0.40615 2.1799-0.3957 9.4361 0.0157 10.934 0.10831 0.39427 0.31338 1.783 0.45573 3.0861 0.14236 1.3031 0.33883 2.5187 0.43648 2.7011 0.0976 0.18244 0.2691 0.89043 0.38117 1.5733 0.11207 0.68292 0.35494 1.7254 0.53973 2.3168 0.18479 0.59139 0.39114 1.3978 0.45853 1.7921 0.0674 0.39426 0.26214 0.99911 0.43263 1.3441 0.17047 0.34498 0.36815 0.94981 0.43927 1.3441 0.0711 0.39426 0.29292 1.0984 0.49284 1.5646 0.60956 1.4216-0.13724 1.759-2.4554 1.1092-0.49283-0.13814-1.6622-0.33744-2.5986-0.44277-0.93638-0.10534-2.388-0.34156-3.2258-0.52504s-2.1281-0.38697-2.8674-0.45223c-0.73924-0.0653-1.8188-0.23813-2.399-0.38397-0.58024-0.14584-1.9955-0.37526-3.1449-0.50998-2.4537-0.28757-2.9607-0.48041-3.244-1.2342-0.11561-0.30756-0.35437-0.92223-0.53028-1.3658-0.17592-0.44355-0.40931-1.2337-0.51873-1.7561-0.10941-0.5224-0.3096-1.1676-0.44488-1.4337s-0.30134-0.96796-0.36928-1.5594c-0.06793-0.5914-0.27696-1.6398-0.46447-2.3297-0.76066-2.7989-0.8227-14.391-0.08646-16.153 0.14629-0.3501 0.37942-1.3432 0.51838-2.2065 0.13897-0.86333 0.3703-1.8033 0.51383-2.0889 0.14353-0.28564 0.35771-0.91522 0.47602-1.399 0.11832-0.48382 0.33178-1.0461 0.47428-1.2496s0.25902-0.48657 0.25902-0.62934c0-0.23849 0.82652-2.1298 1.3007-2.9762 0.11043-0.19713 0.38916-0.72133 0.61954-1.1649 0.23039-0.44355 0.65588-1.1694 0.94541-1.6129 0.28952-0.44355 0.66205-1.0484 0.8278-1.3441 1.1528-2.0565 6.8075-8.2669 8.6721-9.5241 0.89692-0.60476 1.7735-1.2253 2.5986-1.8397 0.39427-0.29358 1.0394-0.69969 1.4337-0.9027 0.39428-0.20301 1.1201-0.6073 1.6129-0.89851 0.49283-0.2912 1.0498-0.58597 1.2377-0.65488 2.6754-0.98118 2.756-1.4942 0.82676-5.2661-0.17645-0.34498-0.38128-0.82885-0.45504-1.0753-0.39865-1.3319-1.1078-1.8118-2.4922-1.6864-7.5071 0.68027-13.501-7.4082-10.396-14.028 0.23988-0.51137 0.43613-0.98689 0.43613-1.0567 0-2.1479 5.6204-5.5258 9.1397-5.4929zm10.857 14.802c-1.0669-0.0375-1.7546 0.39482-2.4092 1.3539-0.40855 0.59852-1.1056 1.4293-1.5488 1.8464-0.95794 0.90147-0.97281 1.0614-0.24361 2.6157 0.30922 0.65911 0.76311 1.6417 1.0088 2.1838 1.5207 3.356 1.8121 3.4829 5.6928 2.4813 2.3648-0.61033 12.783-0.62357 15.048-0.0192 0.78853 0.21038 2.0346 0.43785 2.769 0.50544 0.73441 0.0676 1.6658 0.26441 2.0697 0.43752 0.40388 0.17312 1.0933 0.37307 1.532 0.44418 0.43878 0.0711 1.1312 0.27374 1.5387 0.45047 0.40749 0.17674 1.0541 0.37422 1.4372 0.43894 2.245 0.37928 0.51276 0.89625-5.4834 1.636-0.53654 0.0662-1.4006 0.26658-1.9199 0.44523-0.51927 0.17866-1.3303 0.38198-1.8023 0.45223-0.47195 0.0703-1.2658 0.2677-1.7641 0.43857-0.49832 0.17087-1.2554 0.36986-1.6829 0.44208-0.42746 0.0722-1.1893 0.32282-1.6927 0.55723-0.50344 0.23442-1.0376 0.42712-1.1869 0.42808-0.14931 6.8e-4 -0.55253 0.15238-0.89606 0.33637-0.34351 0.184-0.89561 0.39386-1.2272 0.46658-0.33156 0.0727-1.0977 0.39517-1.7025 0.71649-4.5858 2.4363-4.14 2.1194-4.2044 2.9874-0.0421 0.56646 0.0698 1.0401 0.40637 1.7207 0.25544 0.51654 0.65841 1.3633 0.89536 1.8817 1.7595 3.8496 1.4201 3.6004 4.1677 3.0606 1.2874-0.25293 1.738-0.26798 2.81-0.0938 2.281 0.37065 3.6415 0.69573 4.4383 1.0599 1.9399 0.8866 1.9546 0.88935 2.5586 0.49353 0.23133-0.15157 0.81108-0.77657 1.2884-1.3889s0.95044-1.206 1.0515-1.3192 0.4257-0.50818 0.72139-0.87785c0.2957-0.36968 0.66492-0.80131 0.82046-0.95907s0.75762-0.89185 1.3381-1.6311c0.5805-0.73925 1.8242-2.2735 2.7638-3.4096 0.93957-1.1361 1.9504-2.3786 2.2461-2.7613 0.29569-0.3827 0.69892-0.87829 0.89605-1.1012 0.69124-0.7815 1.0831-1.2554 2.5517-3.0875 1.7724-2.2113 1.8575-2.641 0.89815-4.5317-0.53207-1.0486-0.64443-1.1605-1.2993-1.2937-0.39426-0.0802-1.4426-0.3356-2.3297-0.56739-0.8871-0.23179-2.0161-0.47621-2.509-0.54323-0.49283-0.067-1.1629-0.23309-1.489-0.36893-0.32608-0.13583-1.0116-0.30127-1.5233-0.36752-0.51174-0.0662-1.5695-0.31009-2.3507-0.54218-0.78126-0.23209-1.6239-0.42212-1.8726-0.42212-0.24867 0-1.1821-0.19401-2.0742-0.43123-2.6071-0.69327-4.0441-1.0347-5.4278-1.2895-0.71319-0.13132-1.8422-0.39711-2.5089-0.59084s-1.5984-0.40332-2.0704-0.46587c-0.47196-0.0626-1.1171-0.22115-1.4337-0.35212-0.31657-0.13096-1.1459-0.32562-1.8429-0.43263-0.697-0.10701-1.6185-0.31856-2.048-0.47008-0.98781-0.34852-1.7645-0.53998-2.4046-0.56248zm31.367 33.274c0.18196 3e-3 0.48843 0.46683 0.97831 1.2933 0.42355 0.7146 0.86447 1.4202 0.98006 1.5681 0.46471 0.59441 2.2335 4.2653 2.2335 4.6353 0 0.11888 0.11985 0.39908 0.26637 0.62269 0.34275 0.5231 0.95056 2.2402 1.279 3.6129 0.14148 0.59139 0.41408 1.5591 0.60554 2.1505 0.45462 1.4043 0.96362 6.5681 0.83024 8.4229-0.23539 3.2736-0.47393 5.0732-0.79524 6.0036-0.18721 0.54212-0.39564 1.2851-0.46343 1.651-0.12092 0.65285-0.60522 1.8534-1.4676 3.6385-0.23878 0.49425-0.43403 0.96037-0.43403 1.0361s-0.3762 0.71981-0.83584 1.4312c-0.45966 0.71143-1.0598 1.643-1.3336 2.07-0.81381 1.2693-4.2664 5.2441-5.4362 6.2584-0.59741 0.518-1.4893 1.3106-1.9822 1.7617-0.49284 0.45101-1.0977 0.95086-1.3441 1.1106s-0.569 0.39817-0.71685 0.52993c-0.45198 0.40277-2.7321 2.0779-3.5394 2.6003-0.70903 0.45877-1.1155 0.71513-2.8674 1.8082-0.36962 0.23063-0.90519 0.57337-1.1901 0.76165-0.81771 0.54041-0.84818 0.55676-2.1701 1.1491-0.68997 0.30916-1.3956 0.63696-1.5681 0.72875-0.73298 0.39005-0.99105 0.51636-1.9265 0.94226-0.54211 0.24682-1.5164 0.69769-2.1649 1.0018-0.64846 0.30407-1.3189 0.55268-1.49 0.55268-0.17118 0-0.48754 0.0953-0.70284 0.21177-0.21529 0.11644-0.99616 0.39301-1.7354 0.61463-0.73925 0.22163-1.707 0.51975-2.1505 0.66259-1.9866 0.6398-3.3886 1.0008-4.3011 1.1071-0.54211 0.0631-1.5502 0.26902-2.2401 0.45748-1.3236 0.36155-7.3798 0.89275-10.152 0.89045-1.5357-1e-3 -1.5544-7e-3 -2.0819-0.60764-0.29278-0.33346-0.59016-0.91813-0.66084-1.2993-0.0707-0.38115-0.27436-0.93497-0.45258-1.2307s-0.38089-0.81989-0.45048-1.1649c-0.0696-0.34499-0.2356-0.79962-0.36892-1.0105-0.13332-0.2109-0.3999-0.81573-0.59224-1.3441-0.19234-0.52835-0.56767-1.5253-0.8341-2.2153-0.26643-0.68996-0.68675-1.7787-0.9342-2.4194s-0.60571-1.597-0.7963-2.1253c-0.19059-0.52835-0.45576-1.1332-0.58908-1.3441-0.13332-0.21089-0.29933-0.66587-0.36892-1.0109-0.06959-0.34498-0.27041-0.86918-0.44628-1.1649-0.17586-0.2957-0.37668-0.8199-0.44627-1.1649-0.0696-0.34498-0.2356-0.79962-0.36892-1.0105-0.13332-0.21089-0.41369-0.85604-0.62304-1.4337-0.20935-0.57763-0.5054-1.3932-0.65769-1.8124-0.51456-1.4166 0.3248-1.6017 3.44-0.7578 0.68996 0.18691 1.8996 0.38995 2.6882 0.45118 0.78853 0.0612 2.1595 0.24625 3.0466 0.41093 4.0631 0.75427 15.314 0.25492 19.355-0.85896 0.68996-0.1902 1.7384-0.46364 2.3298-0.60763 1.4414-0.35096 2.715-0.7778 3.5842-1.2013 0.39426-0.19208 0.77882-0.34889 0.85475-0.34862 0.24604 6.8e-4 3.0646-1.4289 3.8943-1.9755 0.44355-0.29222 1.01-0.63276 1.259-0.75639 3.3732-1.6748 10.05-8.9435 12.174-13.254 0.30573-0.62039 0.6259-1.2491 0.7116-1.3969 0.47406-0.81783 1.0671-2.1897 1.1729-2.7141 0.0668-0.33074 0.2681-1.0046 0.44767-1.4974 1.168-3.2055 1.535-6.2102 1.3619-11.156-0.0799-2.2846-0.0797-3.2682 0.18622-3.2647z" stroke-width=".26752"/></g></svg>
