<?xml version="1.0" encoding="UTF-8"?>
<!-- Created with Inkscape (http://www.inkscape.org/) -->
<svg width="511.49mm" height="512mm" version="1.1" viewBox="0 0 511.49 512" xml:space="preserve" xmlns="http://www.w3.org/2000/svg"><g transform="translate(-54.83 -158.06)"><path d="m290.08 669.5c-24.693-2.5848-52.309-9.2329-73.593-17.716-73.353-29.237-129.71-91.329-151.7-167.15-2.6263-9.0542-6.1617-26.068-8.6119-41.444-1.7966-11.274-1.7966-46.799 0-58.074 5.8116-36.47 11.944-56.7 25.645-84.607 34.741-70.76 102.68-122.6 179.72-137.12 21.5-4.0532 25.368-4.5442 40.674-5.1625 38.263-1.5458 81.473 7.635 118.03 25.078 71.994 34.353 124.84 101.4 140.53 178.28 4.8388 23.715 5.5533 30.479 5.5533 52.567s-0.71455 28.852-5.5533 52.567c-12.174 59.664-47.708 115.14-97.471 152.16-36.139 26.888-71.448 41.317-120.15 49.099-11.704 1.8703-41.55 2.7246-53.067 1.519zm166.93-141.38c7.4206-3.478 14.058-10.362 16.99-17.62l2.3139-5.7282v-90.114c0-84.869-0.1071-90.421-1.8395-95.391-2.871-8.2365-8.46-14.525-16.37-18.419l-6.7806-3.3381h-281.4l-5.7276 2.6845c-7.4206 3.478-14.058 10.362-16.99 17.62l-2.3139 5.7283v90.114c0 83.77 0.12529 90.473 1.7795 95.211 3.4829 9.9752 10.635 16.968 21.049 20.581 4.9337 1.7115 12.505 1.7945 144.38 1.5814l139.18-0.22479zm-282.92-26.681c-1.5128-1.6716-1.6571-8.7869-1.6571-81.71 0-70.387 0.17744-79.811 1.4932-79.306 0.82129 0.31523 28.644 22.134 61.828 48.487 77.329 61.409 69.055 55.286 74.707 55.286 2.8013 0 5.7091-0.69151 7.1825-1.708 1.3616-0.93942 30.786-24.172 65.389-51.629 34.602-27.456 63.551-50.166 64.331-50.465 1.2167-0.46687 1.4186 10.85 1.4186 79.509 0 76.283-0.0863 80.131-1.831 81.71-1.6847 1.5247-12.595 1.6571-136.52 1.6571-129.21 0-134.75-0.0745-136.34-1.831zm81.448-132c-29.462-23.459-53.718-43.046-53.902-43.525-0.18796-0.49057 47.409-0.871 108.97-0.871 65.423 0 109.17 0.3667 108.97 0.91323-0.58725 1.6068-107.07 85.688-108.8 85.916-0.91849 0.12072-25.776-18.974-55.238-42.434z"/></g></svg>
