<svg width="138.75mm" height="135.47mm" version="1.1" viewBox="0 0 138.75 135.47" xml:space="preserve" xmlns="http://www.w3.org/2000/svg"><g transform="translate(-49.044 -85.484)"><path d="m95.173 220.36c-21.497-7.5169-38.488-26.102-44.048-48.182-1.394-5.5356-1.8501-8.8725-2.0404-14.929-0.52728-16.78 4.1444-31.405 14.348-44.919 2.5368-3.3598 9.0933-9.9164 12.453-12.453 9.5951-7.2447 19.761-11.656 31.446-13.644 4.3131-0.73395 13.766-0.98362 18.298-0.48326 16.74 1.8486 31.694 9.2229 43.185 21.297 10.543 11.078 16.993 25.074 18.707 40.595 0.54809 4.9633 0.25387 14.08-0.61153 18.95-3.9356 22.144-17.864 40.776-37.858 50.643-2.2408 1.1058-5.337 2.4383-6.8804 2.961-2.6517 0.89808-2.8761 0.92415-4.0742 0.47331-0.87409-0.32893-1.4454-0.829-1.839-1.6098-0.52056-1.0325-0.55283-1.9833-0.36473-10.748 0.28457-13.261-0.18612-16.555-2.9555-20.685-0.7858-1.1718-1.3096-2.1306-1.1641-2.1306 0.14554 0 1.9292-0.2851 3.9638-0.63357 17.191-2.9444 25.672-12.236 26.984-29.561 0.66156-8.7375-1.007-15.24-5.3407-20.812-1.0781-1.3863-1.4631-2.1433-1.3262-2.6075 1.5563-5.2762 1.4411-10.83-0.33566-16.179-0.60947-1.8349-1.2147-2.0671-4.1616-1.5963-3.777 0.60339-8.1791 2.4487-13.046 5.4688l-2.5552 1.5855-3.2398-0.72824c-8.901-2.0007-20.268-1.9384-29.044 0.15913l-2.5188 0.60208-1.0665-0.72037c-4.2483-2.8696-10.132-5.5068-13.891-6.2259-3.686-0.70525-4.069-0.54178-4.8875 2.086-1.6589 5.3254-1.7266 10.367-0.20888 15.549 0.13559 0.46287-0.24979 1.2226-1.3181 2.5983-2.0476 2.6369-3.8998 6.5825-4.7271 10.07-1.2442 5.2448-0.78574 14.419 1.0126 20.262 1.5997 5.1983 4.7351 10.05 8.4066 13.007 4.8139 3.8776 10.283 6.032 18.695 7.3644l2.5184 0.39891-0.85756 1.0158c-1.144 1.3551-2.6042 4.4891-3.078 6.6064l-0.38404 1.7161-1.9882 0.69218c-1.1039 0.38432-3.2284 0.77119-4.7767 0.86984-5.7437 0.36597-9.7257-1.8364-13.435-7.4306-1.5948-2.4054-4.5681-5.1935-6.5922-6.1818-2.056-1.0038-5.9853-1.1444-6.8833-0.24639-0.507 0.50701-0.50944 0.61401-0.03072 1.3446 0.28606 0.43659 0.97994 1.1421 1.542 1.5677 4.0178 3.0431 5.896 5.4424 8.472 10.822 2.3114 4.8275 4.5745 6.8318 9.2954 8.2323 2.1629 0.64164 7.7568 0.81185 11.805 0.35922l2.363-0.26419v14.044l-0.89632 0.9687c-1.2063 1.3037-2.6817 1.4962-5.0696 0.66116z" stroke-width="1.2319"/></g></svg>
