<?xml version="1.0" encoding="UTF-8"?>
<!-- Created with Inkscape (http://www.inkscape.org/) -->
<svg width="512.19mm" height="512mm" version="1.1" viewBox="0 0 512.19 512" xml:space="preserve" xmlns="http://www.w3.org/2000/svg"><g transform="translate(26.204 -7.9201)"><path d="m213.8 519.63c-44.928-2.9561-88.232-17.494-125.16-42.019-24.441-16.232-46.22-36.741-63.631-59.922-18.958-25.24-33.415-54.505-41.765-84.546-13.878-49.923-12.443-102.86 4.11-151.67 9.6942-28.585 24.472-55.17 44.432-79.934 6.3034-7.8204 25.577-27.265 33.615-33.913 28.647-23.694 60.257-40.425 94.794-50.171 45.35-12.798 94.939-12.709 140.16 0.25223 36.19 10.372 68.186 27.731 97.667 52.985 5.7086 4.8903 22.984 22.484 28.024 28.541 17.643 21.2 31.706 44.679 41.593 69.442 24.33 60.937 24.464 128.29 0.377 189.58-10.277 26.149-26.234 52.452-44.606 73.529-5.435 6.2353-23.022 23.556-28.793 28.356-40.53 33.716-88.098 53.667-140.14 58.778-9.5094 0.93386-31.485 1.3208-40.675 0.71614zm12.237-91.694c29.438-2.6726 50.818-11.141 65.914-26.108 11.588-11.489 17.424-24.346 19.432-42.809 2.2601-20.782-4.0474-38.386-19.668-54.891-2.5363-2.68-9.3587-8.9736-15.161-13.986-17.748-15.332-20.797-19.131-20.797-25.917 0-6.4269 2.722-10.067 16.699-22.329 18.07-15.853 24.527-28.144 25.408-48.366 0.42239-9.69-0.99628-26.824-2.6533-32.045-0.20869-0.65753 1.8689-2.6723 8.2448-7.9955 4.6881-3.9141 9.395-7.8082 10.46-8.6537 1.0648-0.84545 6.7452-5.5723 12.623-10.504 5.878-4.9318 11.82-9.8893 13.205-11.017 1.3847-1.1273 3.1723-2.5851 3.9726-3.2396l1.455-1.19v50.085l-2.1777 1.0661c-3.5948 1.7598-6.7198 4.9169-8.6245 8.7132l-1.7516 3.4911v67.124l1.5871 3.3306c2.0639 4.3311 5.1131 7.3952 9.3482 9.3937 3.033 1.4313 3.9249 1.6108 8.0325 1.6165 4.1761 6e-3 4.9435-0.15241 7.9766-1.6448 4.297-2.1143 7.3546-5.1698 9.3718-9.3653l1.6014-3.3306 0.1466-32.257c0.14176-31.219 0.11291-32.365-0.89602-35.612-1.3612-4.3806-3.948-7.804-7.7574-10.266-1.6926-1.094-3.2923-2.0617-3.555-2.1506-0.28769-0.0973-0.48677-12.23-0.50064-30.508l-0.023-30.347 1.9373-1.6927c2.1408-1.8704 5.7613-4.8721 8.9597-7.4284l2.0837-1.6653h-179.54l-13.693 12.169c-7.5311 6.6932-21.064 18.713-30.073 26.71-9.0092 7.9973-17.303 15.382-18.43 16.41-1.1273 1.0284-10.111 9.0117-19.964 17.741-9.853 8.7289-20.352 18.061-23.332 20.738s-6.2738 5.6101-7.3211 6.5174c-1.0472 0.90731-1.904 1.772-1.904 1.9215s15.449 0.27186 34.331 0.27186h34.331v3.0235c0 1.6629 0.46141 5.7224 1.0254 9.0212 4.5183 26.429 20.426 42.581 47.764 48.496 3.3601 0.72698 7.5757 1.1119 14.363 1.3115l9.6075 0.28253v9.0919c0 5.0006 0.14583 9.8207 0.3239 10.711 0.32392 1.6196 1.0085 2.4441 5.5127 6.64 1.3219 1.2314 2.8268 3.076 3.3442 4.0992 0.81855 1.6184 2.0919 6.3531 2.0919 7.7781 0 0.27938-2.4818 0.48718-5.8182 0.48718-25.846 0-53.985 6.8893-70.017 17.143-18.308 11.709-26.892 28.134-25.967 49.689 0.58215 13.566 3.6265 22.447 11.211 32.705 3.2766 4.4315 7.6006 8.3462 13.762 12.46 12.754 8.5147 29.241 13.449 50.952 15.249 4.7962 0.39769 17.332 0.30297 22.546-0.17042zm-12.298-21.033c-16.684-1.3777-31.187-7.7465-41.06-18.031-4.7625-4.9607-7.7334-9.6889-9.7432-15.506-1.2674-3.6684-1.4186-4.8261-1.4387-11.017-0.0256-7.8761 0.5527-10.413 3.9131-17.165 7.4731-15.017 24.281-26.391 45.243-30.615 8.0205-1.6163 22.733-1.6039 30.297 0.0254 13.327 2.8706 23.935 8.1736 31.89 15.942 10.79 10.536 14.718 24.245 10.854 37.879-5.1644 18.221-24.726 33.208-48.861 37.434-7.0891 1.2414-14.398 1.6063-21.094 1.0533zm6.405-162.71c-27.944-7.4231-46.456-50.094-35.897-82.742 5.0402-15.584 16.296-25.229 29.492-25.271 5.1789-0.0167 8.6393 0.80946 13.924 3.3242 14.652 6.9721 26.42 24.113 30.922 45.043 1.5612 7.2578 1.9149 18.849 0.78195 25.624-1.1322 6.771-2.4337 11.024-4.881 15.951-4.6556 9.3726-11.037 15.247-19.408 17.868-3.9191 1.2269-10.731 1.3197-14.934 0.20338z"/></g></svg>
