<?xml version="1.0" encoding="UTF-8" standalone="no"?>
<svg
   width="406.9209mm"
   height="268.68484mm"
   version="1.1"
   viewBox="0 0 406.9209 268.68485"
   xml:space="preserve"
   id="svg1"
   sodipodi:docname="IDR_Paraná.svg"
   inkscape:version="1.4.2 (f4327f4, 2025-05-13)"
   xmlns:inkscape="http://www.inkscape.org/namespaces/inkscape"
   xmlns:sodipodi="http://sodipodi.sourceforge.net/DTD/sodipodi-0.dtd"
   xmlns="http://www.w3.org/2000/svg"
   xmlns:svg="http://www.w3.org/2000/svg"><defs
     id="defs1" /><sodipodi:namedview
     id="namedview1"
     pagecolor="#ffffff"
     bordercolor="#000000"
     borderopacity="0.25"
     inkscape:showpageshadow="2"
     inkscape:pageopacity="0.0"
     inkscape:pagecheckerboard="0"
     inkscape:deskcolor="#d1d1d1"
     inkscape:document-units="mm"
     inkscape:zoom="0.67397934"
     inkscape:cx="769.31142"
     inkscape:cy="633.55058"
     inkscape:window-width="1920"
     inkscape:window-height="991"
     inkscape:window-x="-9"
     inkscape:window-y="-9"
     inkscape:window-maximized="1"
     inkscape:current-layer="svg1" /><path
     id="path1"
     style="stroke:none;stroke-opacity:1"
     d="m 270.16232,0 -4.70927,2.337325 c -11.846,5.88 -26.1443,13.972887 -38.5253,21.805387 -1.7183,1.08706 -3.1471,1.933699 -3.175,1.881539 -0.0279,-0.0521 -0.51116,-1.021907 -1.07384,-2.154907 -3.192,-6.4273 -9.23634,-12.174143 -15.82384,-15.044043 -4.822,-2.10092 -10.40622,-3.029783 -15.57992,-2.591573 -14.694,1.244 -26.55475,12.275092 -28.97085,26.944092 -0.8394,5.097 -0.35151,10.132119 1.60869,16.596919 l 0.65164,2.149223 5.75676,1.390613 c 40.76883,9.84896 74.24716,26.376069 96.90416,47.838945 h 5.2e-4 c 1.09121,1.03368 2.04819,1.88484 2.12648,1.89084 0.2927,0.0229 2.47918,-3.568321 4.22868,-6.945321 2.3029,-4.445 3.86603,-8.2813 5.94383,-14.5867 l 1.65416,-5.019851 -1.35444,-0.631486 c -14.39,-6.705 -38.56769,-14.425898 -56.58569,-18.069698 -1.7098,-0.34578 -3.10886,-0.715005 -3.10886,-0.820105 0,-0.1051 0.34488,-0.702841 0.76636,-1.328601 0.42146,-0.6258 1.04629,-1.71511 1.38855,-2.42104 l 0.62218,-1.283643 1.58802,0.176217 c 2.954,0.3279 11.08778,1.715669 15.59388,2.660819 13.383,2.8065 26.84414,6.981171 37.61114,11.663371 1.8792,0.8172 3.78885,1.646548 4.24367,1.843298 l 0.82682,0.357601 0.16795,-0.981852 c 1.26127,-7.361 1.8837,-14.612395 1.6707,-19.462895 -0.0821,-1.8697 -0.19268,-3.443147 -0.24598,-3.496427 -0.21,-0.2107 -6.99902,-0.921317 -12.63902,-1.322917 -8.251,-0.58747 -27.00218,-0.593395 -37.04218,-0.01188 -4.1473,0.24022 -7.88614,0.507205 -8.30854,0.593245 l -0.76791,0.15658 0.17053,-1.419035 c 0.0937,-0.7804 0.1716,-1.849022 0.1726,-2.374532 l 0.002,-0.955498 2.84427,-0.427364 c 12.715,-1.911 19.0652,-2.403293 31.1552,-2.414323 11.6632,-0.0106 14.54817,0.204695 20.90157,1.559595 1.6008,0.34136 2.94791,0.586786 2.99361,0.545186 0.4884,-0.445 -3.78934,-18.873688 -4.55993,-19.644278 -0.276,-0.276 -12.12002,2.220181 -21.71702,4.576981 -9.209,2.2614 -21.46913,5.811217 -29.55633,8.557617 -2.55,0.866 -2.3857,0.928239 -2.7218,-1.028361 l -0.15865,-0.926041 1.79834,-0.756027 c 18.596,-7.8132 33.65008,-12.691146 45.93208,-14.883846 l 4.18166,-0.746724 -0.16485,-0.656807 c -0.4811,-1.917 -4.84704,-10.651113 -6.24974,-12.503113 z M 91.09883,41.234692 c -0.0472,0.0471 1.49207,0.538927 3.42047,1.092957 14.603,4.195 31.58305,12.206368 43.94305,20.732068 13.365,9.219 23.85753,20.002092 31.45183,32.323092 7.1669,11.627001 11.51426,23.722821 12.93306,35.982821 0.46548,4.022 0.39907,12.4949 -0.12403,15.8073 -0.23541,1.4907 -0.42788,2.83719 -0.42788,2.99258 l 5.2e-4,10e-4 c 0,0.17776 0.41719,0.23117 1.12448,0.14417 0.6184,-0.0761 2.13654,-0.20899 3.37344,-0.29559 4.4074,-0.3087 9.9852,-0.94455 14.1552,-1.61333 6.1835,-0.9917 9.86031,-1.80159 15.71481,-3.46129 l 1.42782,-0.40463 -0.15452,-4.00492 c -0.596,-15.441 -7.41999,-32.7261 -18.38699,-46.580101 -18.69,-23.610005 -49.23934,-40.265184 -90.54434,-49.365984 -5.896,-1.2991 -17.7418,-3.515303 -17.90692,-3.350183 z m 35.40301,5.48442 c -0.0167,7.87e-4 -0.0273,0.0033 -0.032,0.0072 -2.3e-4,2.29e-4 -0.001,0.0013 -0.002,0.0015 -1.6e-4,2.48e-4 -4e-4,0.0013 -5.2e-4,0.0015 -8e-5,2.67e-4 -4.6e-4,0.0013 -5.1e-4,0.0016 -5e-5,8.55e-4 -2.8e-4,0.0027 0,0.0036 0.0286,0.07306 0.9586,0.381972 2.24895,0.74104 12.938,3.6 25.39831,8.342986 36.64531,13.947986 16.709,8.328 28.76777,16.861346 39.84977,28.200351 13.222,13.529001 21.58054,29.128681 24.56284,45.842681 0.23369,1.3096 0.49072,2.70867 0.57102,3.10885 l 0.001,5.2e-4 c 0.0803,0.40018 0.21037,0.7276 0.28887,0.7276 0.459,0 9.70065,-6.03284 13.04365,-8.51524 5.2124,-3.8708 9.898,-7.94179 13.8684,-12.04939 l 2.35851,-2.44016 -0.50333,-1.13172 c -0.9306,-2.0925 -4.16965,-7.46055 -6.03115,-9.99525 -18.509,-25.203001 -54.76918,-44.558489 -101.59018,-54.227189 -7.792,-1.609 -23.84878,-4.293042 -25.27908,-4.225582 z M 392.34866,175.81563 c -0.19,0 -8.97361,13.85361 -8.97361,14.15314 0,0.0738 1.999,0.13436 4.4421,0.13436 h 4.44211 l 2.76779,-2.54559 c 1.5223,-1.4001 3.92953,-3.60569 5.34903,-4.90099 2.40413,-2.19374 2.54009,-2.3712 1.98437,-2.58847 -0.3281,-0.1283 -2.66905,-1.13746 -5.20175,-2.24276 -2.5327,-1.10526 -4.69721,-2.00969 -4.81004,-2.00969 z m -369.336628,5.50974 v 27.9523 l 5.17e-4,27.95126 27.384375,-0.18345 2.532662,-0.68988 c 6.6953,-1.8238 11.520493,-4.79329 15.396993,-9.47539 8.626901,-10.42 8.165781,-26.47084 -1.042314,-36.26394 -4.069,-4.3267 -9.0606,-7.08508 -15.3479,-8.47958 -2.428,-0.53857 -3.458312,-0.58363 -15.761312,-0.6935 z m 58.209368,0.008 v 27.93266 27.93266 h 12.4349 v -17.72708 h 9.4232 l 11.86904,17.72708 h 7.21351 c 3.9674,0 7.21352,-0.0552 7.21352,-0.12247 0,-0.0673 -2.97659,-4.46722 -6.61459,-9.77822 -3.638,-5.311 -6.61458,-9.71908 -6.61458,-9.79578 0,-0.0767 0.74414,-0.51454 1.65364,-0.97255 7.0515,-3.551 10.31789,-9.39021 9.92136,-17.73691 -0.421,-8.8686 -5.39969,-14.56387 -14.68799,-16.80207 -1.503,-0.36206 -4.13442,-0.44682 -16.79742,-0.54312 z m 76.2,0 v 27.93317 l 0.002,27.93163 h 12.4349 v -16.62379 l 7.0776,-0.10335 c 7.6825,-0.112 9.20191,-0.32599 12.83901,-1.80609 5.4424,-2.2147 9.15445,-6.03168 10.92595,-11.23498 0.95332,-2.8 1.19974,-7.89081 0.53744,-11.11301 -1.44,-7.0032 -6.46979,-12.01758 -14.13299,-14.08958 l -2.56367,-0.6935 z m -156.634368,0.0377 v 27.91406 27.91302 h 12.435417 v -55.82708 z m 34.66145,11.32386 6.548438,0.10438 c 6.4845,0.10312 6.570164,0.11169 8.808764,0.90227 4.1134,1.4527 7.024952,3.96508 8.829952,7.61918 2.3483,4.754 2.345616,11.48767 -0.0057,16.26567 -1.854835,3.76877 -5.5007,6.62957 -10.026778,7.86774 -1.180857,0.32289 -3.197681,0.4677 -7.870838,0.56379 l -6.283854,0.12919 z m 134.408338,0.0119 6.28385,0.0977 c 5.8341,0.0903 6.39523,0.14121 7.83983,0.71417 2.8473,1.1294 4.41607,3.05882 4.88807,6.01152 0.7424,4.6445 -1.63688,8.31891 -6.16758,9.52551 v 5.2e-4 c -0.9211,0.2453 -3.11929,0.35664 -7.08949,0.35864 l -5.75468,0.003 z m -76.2,0.006 7.60677,0.091 c 7.2323,0.0864 7.68273,0.12137 9.14983,0.70693 1.8518,0.7391 3.17801,1.84843 3.96254,3.31453 0.48572,0.9077 0.57981,1.51278 0.57981,3.72948 0,2.2254 -0.0935,2.82 -0.58652,3.74189 -0.8396,1.5698 -2.46356,2.84595 -4.45296,3.49902 -1.5855,0.52049 -2.28192,0.5643 -8.98912,0.5643 h -7.27035 z m 181.50468,0.86868 -1.52136,0.13177 c -3.9792,0.3444 -6.22503,1.28284 -8.55193,3.57394 -0.8387,0.8258 -2.00925,2.37489 -2.60139,3.44269 l -1.07642,1.94148 -0.004,-4.16719 -0.004,-4.16718 h -12.1711 v 21.43125 l 0.002,21.43125 h 12.10779 l 0.12402,-9.45886 c 0.10219,-7.7961 0.20591,-9.80711 0.59066,-11.44271 1.4373,-6.1092 4.88645,-9.08982 11.18795,-9.66763 l 1.91823,-0.1757 z m 72.43899,0.19688 c -4.7376,-0.0258 -7.91135,1.41463 -11.37605,5.16403 l -1.2454,1.34772 -0.0114,-2.97656 -0.0114,-2.97656 h -12.17135 v 21.43125 l 10e-4,21.43021 h 12.13518 l 0.10232,-13.16302 c 0.0705,-9.064 0.19867,-13.45388 0.41134,-14.09785 1.029,-3.1159 3.27411,-4.78257 6.65541,-4.94078 2.633,-0.1232 4.4938,0.60528 5.7459,2.24948 1.6421,2.157 1.67225,2.46387 1.67225,16.90387 V 237.199 h 12.4349 v -14.95981 c 0,-12.4739 -0.0681,-15.29846 -0.41083,-16.99896 -1.1379,-5.6467 -4.73651,-9.70029 -9.79681,-11.03499 -0.8755,-0.23091 -2.69895,-0.41885 -4.13515,-0.42685 z m -51.08371,0.35037 c -2.49335,-0.056 -5.12096,0.0416 -6.96856,0.31316 -3.6129,0.5311 -9.41208,2.25336 -10.21592,3.03392 -0.1606,0.1559 2.55538,8.90139 2.88096,9.27644 2.1e-4,2.4e-4 8e-4,2.8e-4 0.001,5.2e-4 0.0682,0.0561 1.08725,-0.21076 2.27738,-0.5979 3.4491,-1.12196 6.52155,-1.56522 9.98595,-1.44074 2.3113,0.083 3.32892,0.23798 4.23334,0.64492 2.5847,1.163 3.92205,2.99031 4.16718,5.69371 0.0768,0.84727 0.054,1.54048 -0.0512,1.54048 -0.1052,0 -1.12317,-0.23791 -2.26187,-0.52865 -2.808,-0.71695 -6.83258,-1.11011 -9.39478,-0.91726 -8.2486,0.6209 -13.10285,3.55845 -14.99805,9.07645 -0.86384,2.5151 -0.85803,6.5809 0.0129,9.1183 1.3651,3.9768 4.36051,6.64046 9.03201,8.03156 l -5.2e-4,5.1e-4 c 1.5124,0.45037 2.68226,0.59433 4.91856,0.60513 4.8045,0.0232 8.57149,-1.2521 11.51609,-3.8995 l 1.29243,-1.1622 v 4.28242 h 11.93519 l -0.0925,-14.75103 c -0.1027,-16.3978 -0.0628,-15.9956 -1.96835,-19.9099 -1.8607,-3.8214 -5.43572,-6.57261 -10.13892,-7.80211 -1.31,-0.34248 -3.66907,-0.55226 -6.16242,-0.60823 z m -73.54383,0.003 c -2.48726,-0.0558 -5.10137,0.0414 -6.91482,0.31265 -4.1819,0.6255 -10.4074,2.57421 -10.3141,3.22874 0.1396,0.9797 2.88756,9.0997 3.0794,9.0997 0.1342,0 1.39359,-0.35017 2.79879,-0.77824 3.5327,-1.07612 6.13893,-1.42881 9.48883,-1.28365 2.1953,0.0951 3.17654,0.26346 4.24264,0.72761 2.3775,1.0352 3.79422,3.12929 4.13928,6.11849 l 0.14004,1.21233 -2.30425,-0.61547 c -4.697,-1.25534 -10.65734,-1.34523 -15.00374,-0.22583 -3.5881,0.9241 -7.00076,3.26532 -8.60516,5.90352 -1.39367,2.2918 -2.06047,6.14177 -1.59111,9.18807 0.7674,4.9802 4.27341,8.80064 9.49451,10.34614 l -5.2e-4,5.1e-4 c 1.5491,0.45858 2.71377,0.6025 4.95887,0.6134 4.8045,0.0232 8.57149,-1.25262 11.51609,-3.90002 l 1.29243,-1.16168 v 4.28242 h 11.93519 l -0.0971,-14.88333 c -0.109,-16.6722 -0.0568,-16.17005 -2.09806,-20.10265 -1.8912,-3.6436 -5.41484,-6.27736 -10.00404,-7.47706 -1.3055,-0.34118 -3.66585,-0.54984 -6.15312,-0.60565 z m 165.6886,0.0181 c -2.39859,-0.0825 -4.90551,-0.0398 -6.47816,0.1633 -1.3074,0.16882 -3.38917,0.55458 -4.62607,0.85783 -2.164,0.5305 -6.00692,1.91217 -6.41408,2.3058 -0.1573,0.1521 2.55045,8.89008 2.87114,9.26507 1.9e-4,2.2e-4 3e-4,8.2e-4 5.2e-4,0.001 0.0628,0.0507 1.08231,-0.21997 2.27789,-0.60565 3.482,-1.12323 6.52908,-1.55467 9.99578,-1.41541 4.2424,0.1704 6.44625,1.23251 7.71425,3.71811 0.62883,1.2327 0.99977,4.15324 0.52762,4.15324 -0.1642,0 -1.1629,-0.23645 -2.2195,-0.52555 -7.118,-1.9475 -15.68224,-0.88749 -20.31814,2.51561 -5.7107,4.192 -6.34632,13.92621 -1.25522,19.22001 1.5385,1.5999 4.42007,3.19287 6.84247,3.78272 l -5.1e-4,5.2e-4 c 0.7878,0.19183 2.75286,0.36217 4.36666,0.37827 4.7852,0.0477 8.55759,-1.22514 11.51609,-3.88504 l 1.29243,-1.1622 v 4.28243 h 11.93518 l -0.093,-14.75104 c -0.0909,-14.4501 -0.10512,-14.79073 -0.69453,-16.73283 -1.7532,-5.7775 -5.58661,-9.46559 -11.41171,-10.97969 -1.14,-0.29636 -3.43051,-0.50404 -5.8291,-0.58653 z m -257.43649,12.35795 v 5.95261 5.95312 h 19.84427 v -11.90573 z m 91.80267,12.21786 c 1.78103,0.0783 3.61445,0.32895 4.84105,0.72295 l 1.78594,0.57413 v 1.6123 c 0,2.4204 -0.45626,3.60171 -1.98386,5.13871 -0.92457,0.93037 -1.82614,1.52998 -2.90784,1.93476 -1.69296,0.63326 -5.25499,0.94996 -6.61768,0.58808 -3.13549,-0.8327 -4.62112,-3.04344 -4.0659,-6.04924 0.3952,-2.1396 1.75617,-3.43497 4.42247,-4.21008 1.0162,-0.29544 2.7448,-0.3899 4.52582,-0.31161 z m 72.77334,0.0847 c 2.9967,0 3.88617,0.0992 5.52317,0.6134 l 1.95079,0.61288 -0.12144,2.03295 c -0.2326,3.8922 -2.19872,6.0778 -6.34742,7.0559 -5.4441,1.2835 -9.3884,-0.8045 -9.294,-4.9196 0.0544,-2.3735 0.975,-3.6709 3.3972,-4.7873 1.1703,-0.53943 1.7241,-0.60823 4.8917,-0.60823 z m 91.81093,0 c 2.9799,0 3.8897,0.10004 5.4901,0.60306 l 1.91823,0.60307 v 1.56993 c 0,2.1422 -0.81323,4.21708 -2.11253,5.39088 -1.3395,1.21022 -2.25399,1.66802 -4.29069,2.14819 -5.4201,1.2778 -9.36606,-0.79527 -9.31106,-4.89117 0.0315,-2.3446 0.99186,-3.69923 3.41426,-4.81573 1.1703,-0.53943 1.72409,-0.60823 4.89169,-0.60823 z M 0,263.92234 v 2.38125 l 0.01344,2.38125 h 272.75027 l 1.33842,-2.27376 c 0.73607,-1.2506 1.3379,-2.32215 1.3379,-2.38125 0,-0.0591 -61.97575,-0.10749 -137.71975,-0.10749 z m 280.50122,0 -1.24953,2.18282 c -0.68709,1.2005 -1.29978,2.27211 -1.36168,2.38125 -0.0583,0.10913 28.94333,0.19843 64.45705,0.19843 h 64.57384 v -4.7625 z"
     sodipodi:nodetypes="ccssscccsccccccsccsssccccscccscssccccccsscscscccccsccscccssccscscccsssscscccccccsccscccsccccssscsssssccccsccccccccccccsssssccscccccccssccccccccccccssccscccccscccccccssscssccccsccccccccscccccscccccccssscsccscscccssscsssssssscccsccccccsccssssssccccsscccccccccscssssssscsssssscccsccccccsssccccccsccsccsssssccssssssccsssssscccccssccccsccc" /></svg>
