<?xml version="1.0" encoding="UTF-8" standalone="no"?>
<svg
   width="135.46667mm"
   height="135.46678mm"
   version="1.1"
   viewBox="0 0 135.46668 135.46679"
   xml:space="preserve"
   id="svg1"
   sodipodi:docname="Instagram.svg"
   inkscape:version="1.4.2 (f4327f4, 2025-05-13)"
   xmlns:inkscape="http://www.inkscape.org/namespaces/inkscape"
   xmlns:sodipodi="http://sodipodi.sourceforge.net/DTD/sodipodi-0.dtd"
   xmlns="http://www.w3.org/2000/svg"
   xmlns:svg="http://www.w3.org/2000/svg"><defs
     id="defs1" /><sodipodi:namedview
     id="namedview1"
     pagecolor="#505050"
     bordercolor="#ffffff"
     borderopacity="1"
     inkscape:showpageshadow="0"
     inkscape:pageopacity="0"
     inkscape:pagecheckerboard="1"
     inkscape:deskcolor="#505050"
     inkscape:document-units="mm"
     inkscape:zoom="0.49690367"
     inkscape:cx="1049.4992"
     inkscape:cy="888.50219"
     inkscape:window-width="2400"
     inkscape:window-height="1261"
     inkscape:window-x="2391"
     inkscape:window-y="-9"
     inkscape:window-maximized="1"
     inkscape:current-layer="g1" /><g
     transform="translate(140.56894,173.8821)"
     id="g1"><path
       d="m -105.96728,-38.469345 c -2.48881,-0.0291 -4.09485,-0.07735 -4.9681,-0.149277 -0.70972,-0.05845 -1.81298,-0.165709 -2.45174,-0.238343 -0.63869,-0.07263 -1.65594,-0.215487 -2.26055,-0.317451 -0.60462,-0.101964 -1.50475,-0.275587 -2.00027,-0.385836 -0.49551,-0.11025 -1.2203,-0.290249 -1.61067,-0.400035 -0.39034,-0.109774 -1.13072,-0.344727 -1.64528,-0.522117 -0.51456,-0.177384 -1.33575,-0.493596 -1.8249,-0.702726 -0.48916,-0.20911 -1.215,-0.543318 -1.61302,-0.742664 -0.39802,-0.199347 -1.02852,-0.537487 -1.40113,-0.751398 -0.37261,-0.213909 -1.04039,-0.625998 -1.48397,-0.91576 -0.44357,-0.289761 -1.12588,-0.769427 -1.51623,-1.065946 -0.39034,-0.296519 -0.97091,-0.759498 -1.29015,-1.028863 -0.31923,-0.269366 -0.92599,-0.823808 -1.34835,-1.232089 -0.42236,-0.408281 -1.0333,-1.035377 -1.35761,-1.393572 -0.3243,-0.358194 -0.81194,-0.927738 -1.0836,-1.265659 -0.27168,-0.337944 -0.71835,-0.927665 -0.99264,-1.3105 -0.27427,-0.382835 -0.7423,-1.091368 -1.04005,-1.574523 -0.29775,-0.483155 -0.81136,-1.415845 -1.14133,-2.072633 -0.32998,-0.656787 -0.76846,-1.600847 -0.9744,-2.097883 -0.20594,-0.497037 -0.53017,-1.368467 -0.7205,-1.936499 -0.19033,-0.568031 -0.47562,-1.555664 -0.63398,-2.19469 -0.15835,-0.639051 -0.35905,-1.55403 -0.44597,-2.03333 -0.0869,-0.4793 -0.21775,-1.292617 -0.29072,-1.80739 -0.073,-0.514773 -0.19207,-1.502406 -0.26468,-2.194691 -0.10198,-0.972189 -0.14674,-2.052188 -0.19664,-4.744452 -0.0405,-2.185639 -0.0549,-15.932595 -0.0386,-36.858738 0.0179,-22.88715 0.0482,-33.81889 0.0966,-34.79232 0.0388,-0.78106 0.10281,-1.79771 0.14225,-2.25924 0.0394,-0.46154 0.1587,-1.46367 0.26507,-2.22697 0.10636,-0.76331 0.28102,-1.82354 0.38812,-2.35608 0.10711,-0.53253 0.29597,-1.36039 0.41968,-1.83966 0.1237,-0.47928 0.35679,-1.27811 0.51795,-1.77512 0.16117,-0.49703 0.45216,-1.31035 0.64666,-1.80739 0.19449,-0.49704 0.6102,-1.42655 0.92383,-2.06561 0.3136,-0.63905 0.77032,-1.49735 1.01488,-1.90736 0.24457,-0.41002 0.6809,-1.09264 0.96958,-1.51693 0.28868,-0.42428 0.76827,-1.08363 1.06575,-1.46517 0.29748,-0.38157 0.7928,-0.98097 1.10067,-1.33202 0.3079,-0.35105 1.03384,-1.10113 1.61322,-1.66679 0.57938,-0.56569 1.4428,-1.34102 1.91871,-1.72296 0.47591,-0.38193 1.31534,-0.99461 1.86536,-1.36151 0.55002,-0.3669 1.3189,-0.8492 1.70858,-1.07175 0.38969,-0.22257 1.23168,-0.65867 1.87109,-0.96912 0.63942,-0.31045 1.46744,-0.68589 1.84005,-0.8343 0.37262,-0.14841 0.98233,-0.37944 1.35492,-0.51338 0.37259,-0.13394 1.04373,-0.34856 1.49141,-0.47691 0.44767,-0.12835 1.20255,-0.32184 1.67754,-0.42999 0.47498,-0.10815 1.35716,-0.28098 1.96044,-0.38406 0.60327,-0.10308 1.7356,-0.2616 2.51636,-0.35224 0.78075,-0.0906 1.79688,-0.19838 2.25821,-0.2394 0.61659,-0.0548 9.86255,-0.0817 34.90569,-0.10153 23.111791,-0.0183 35.144671,-0.005 37.422295,0.0427 1.84529,0.0383 3.776125,0.0986 4.290664,0.13401 0.514538,0.0354 1.211384,0.0952 1.548492,0.13293 0.337108,0.0377 1.121035,0.14115 1.742065,0.2299 0.621006,0.0888 1.564636,0.24733 2.096927,0.35239 0.532291,0.10505 1.403323,0.30547 1.935614,0.44534 0.532292,0.13987 1.330728,0.37366 1.774304,0.5195 0.443576,0.14586 1.242451,0.43695 1.775255,0.64686 0.532803,0.20991 1.447388,0.61631 2.032401,0.90312 0.585013,0.28681 1.499184,0.78204 2.031475,1.10057 0.532291,0.3185 1.313585,0.82176 1.736189,1.11835 0.422604,0.29659 1.177488,0.87297 1.677541,1.28086 0.500029,0.40789 1.312073,1.12906 1.804517,1.6026 0.492445,0.47354 1.20797,1.21726 1.590046,1.65267 0.382075,0.43541 0.956602,1.1355 1.276762,1.55576 0.32016,0.42026 0.798266,1.0961 1.06246,1.50187 0.2641949,0.40577 0.6694852,1.0718 0.9006129,1.48008 0.2311447,0.40828 0.5799407,1.06185 0.7751238,1.45237 0.1951783,0.39052 0.5064422,1.05863 0.6917004,1.48464 0.1852533,0.42602 0.4468192,1.06507 0.5812575,1.42009 0.1344335,0.35503 0.3633957,1.01294 0.5088077,1.46201 0.1454119,0.44907 0.3652977,1.21884 0.4885918,1.71058 0.1232941,0.49175 0.2980908,1.26693 0.3884155,1.72261 0.09031,0.45571 0.2360413,1.32714 0.3238421,1.9365 0.087801,0.60936 0.2052422,1.52915 0.2609757,2.04392 0.073464,0.67867 0.1190437,2.17817 0.1657984,5.4544 0.039575,2.77343 0.054814,17.61891 0.039456,38.43965 -0.022752,30.854675 -0.034569,34.011625 -0.1306537,34.921627 -0.058099,0.550295 -0.1667469,1.479814 -0.2414428,2.065606 -0.074696,0.585793 -0.2195152,1.531146 -0.321818,2.100763 -0.1023078,0.569642 -0.3186236,1.564544 -0.4807153,2.210938 -0.1620869,0.64637 -0.4702295,1.688652 -0.6847749,2.316138 -0.2145454,0.627487 -0.5619684,1.542978 -0.7720756,2.034379 -0.2100999,0.491401 -0.5683331,1.265512 -0.7960956,1.720221 -0.2277551,0.454708 -0.5792823,1.115032 -0.7811958,1.467347 -0.2019136,0.352315 -0.6345891,1.047259 -0.9615041,1.544295 -0.326939,0.497037 -0.793291,1.16512 -1.036368,1.484645 -0.243076,0.319525 -0.660974,0.842374 -0.928656,1.161899 -0.267682,0.319526 -0.879665,0.984412 -1.359966,1.47757 -0.480301,0.493133 -1.236184,1.215767 -1.67976,1.605848 -0.443576,0.390081 -1.142348,0.96226 -1.552808,1.27149 -0.41046,0.309254 -1.078263,0.780552 -1.483968,1.047356 -0.405729,0.266804 -1.026272,0.651713 -1.378986,0.855353 -0.35274,0.203643 -1.093114,0.596064 -1.645279,0.87204 -0.552166,0.275977 -1.439464,0.676866 -1.971755,0.890875 -0.532291,0.214004 -1.376182,0.521824 -1.875309,0.684063 -0.499126,0.162239 -1.312097,0.396449 -1.806566,0.520482 -0.494493,0.124031 -1.169416,0.285419 -1.499842,0.358634 -0.330426,0.07322 -1.128863,0.218959 -1.774304,0.323867 -0.64544,0.104907 -1.594532,0.235157 -2.109094,0.289444 -0.514539,0.05429 -1.50172,0.143212 -2.193689,0.19761 -0.691993,0.0544 -2.375972,0.126054 -3.74223,0.159233 -1.42054,0.0345 -15.646596,0.05587 -33.227954,0.04991 -16.909288,-0.0057 -32.398839,-0.02976 -34.422849,-0.05341 z m 47.100976,-17.748208 c 1.632378,-0.03484 3.969504,-0.107456 5.19391,-0.161381 1.224406,-0.05392 2.603417,-0.127029 3.064795,-0.162456 0.461328,-0.03542 1.129106,-0.09426 1.483967,-0.13074 0.354861,-0.03648 0.979086,-0.111293 1.387181,-0.166245 0.408094,-0.05495 1.148468,-0.170629 1.645278,-0.257069 0.49681,-0.08644 1.431953,-0.287492 2.078076,-0.446804 0.646124,-0.159311 1.633306,-0.437606 2.193689,-0.618411 0.560384,-0.180805 1.454412,-0.50416 1.986703,-0.718511 0.532291,-0.214355 1.287175,-0.540292 1.677541,-0.724293 0.390366,-0.184001 1.058144,-0.532754 1.483968,-0.77499 0.425823,-0.242233 1.079116,-0.644418 1.451705,-0.893778 0.372613,-0.249335 0.909733,-0.628291 1.193631,-0.84213 0.283898,-0.213831 0.777075,-0.608335 1.095966,-0.876675 0.318892,-0.268341 0.896736,-0.792897 1.284103,-1.165657 0.387366,-0.372783 0.969526,-0.970823 1.293685,-1.329017 0.324184,-0.358194 0.809045,-0.924616 1.077482,-1.25873 0.268438,-0.334115 0.692213,-0.89795 0.941727,-1.252973 0.24949,-0.355023 0.62086,-0.921444 0.825237,-1.25873 0.204384,-0.337262 0.568577,-0.990853 0.809312,-1.452368 0.240736,-0.461515 0.610692,-1.245824 0.822116,-1.742861 0.211426,-0.497037 0.529998,-1.310354 0.707916,-1.80739 0.177931,-0.497037 0.442552,-1.324895 0.588062,-1.839668 0.145504,-0.514773 0.348983,-1.313599 0.452159,-1.775114 0.103188,-0.461539 0.261903,-1.274856 0.352691,-1.80739 0.09079,-0.532534 0.209339,-1.316819 0.263463,-1.742861 0.05411,-0.426018 0.140113,-1.253875 0.19112,-1.839668 0.05101,-0.585792 0.109767,-1.370077 0.130578,-1.742861 0.0208,-0.372783 0.06647,-1.345875 0.101462,-2.162413 0.03499,-0.816537 0.09413,-2.588504 0.131419,-3.937649 0.03876,-1.402403 0.06781,-7.843581 0.06784,-15.040164 2.2e-5,-7.34539 -0.02869,-13.62221 -0.06896,-15.07236 -0.03795,-1.36686 -0.112475,-3.42922 -0.165611,-4.58294 -0.05314,-1.15373 -0.139747,-2.59168 -0.192471,-3.19526 -0.05273,-0.60355 -0.140389,-1.44592 -0.194808,-1.87194 -0.05442,-0.42602 -0.173356,-1.2103 -0.264292,-1.74284 -0.09094,-0.53253 -0.250368,-1.34587 -0.3543,-1.80739 -0.103922,-0.46154 -0.277363,-1.15868 -0.385416,-1.5492 -0.108056,-0.39052 -0.327329,-1.1022 -0.4873,-1.58147 -0.15997,-0.47928 -0.436845,-1.23453 -0.615324,-1.67831 -0.178471,-0.44378 -0.550336,-1.27164 -0.826358,-1.83967 -0.276022,-0.56803 -0.735619,-1.41792 -1.021322,-1.88863 -0.285703,-0.47071 -0.701406,-1.10976 -0.923779,-1.42009 -0.222373,-0.31035 -0.564822,-0.7676 -0.761029,-1.0161 -0.196193,-0.24851 -0.651293,-0.7859 -1.011324,-1.19418 -0.36003,-0.40828 -0.955724,-1.03279 -1.323753,-1.38781 -0.368029,-0.35503 -0.886908,-0.83757 -1.153053,-1.07229 -0.266146,-0.23474 -0.774149,-0.65281 -1.128888,-0.92906 -0.354738,-0.27625 -0.935411,-0.6967 -1.290418,-0.93435 -0.354982,-0.23764 -0.923901,-0.59555 -1.264252,-0.79536 -0.340351,-0.19981 -1.081408,-0.59045 -1.646791,-0.86809 -0.565382,-0.27763 -1.414882,-0.65779 -1.887745,-0.84474 -0.472888,-0.18696 -1.29332,-0.48345 -1.823222,-0.65884 -0.529901,-0.17538 -1.550467,-0.46436 -2.267943,-0.64214 -0.717476,-0.17778 -1.812662,-0.40887 -2.433741,-0.51351 -0.62108,-0.10465 -1.65179,-0.24877 -2.290476,-0.32031 -0.638686,-0.0715 -1.567732,-0.15951 -2.064542,-0.19554 -0.49681,-0.036 -1.585583,-0.096 -2.419525,-0.13328 -0.833918,-0.0373 -2.300157,-0.0986 -3.258173,-0.13625 -0.95987,-0.0377 -7.057953,-0.0834 -13.581616,-0.10182 -7.507625,-0.0212 -13.255822,-0.007 -15.71073,0.0376 -2.129165,0.039 -4.872995,0.1148 -6.097157,0.16838 -1.224284,0.0536 -2.80655,0.14241 -3.516418,0.19739 -0.709721,0.055 -1.725922,0.15746 -2.258213,0.22771 -0.532291,0.0703 -1.316218,0.18558 -1.742066,0.25629 -0.425823,0.0707 -1.238792,0.23213 -1.806562,0.35873 -0.56777,0.1266 -1.51113,0.37457 -2.09632,0.55103 -0.58518,0.17646 -1.45621,0.46779 -1.93561,0.64735 -0.4794,0.17957 -1.26359,0.49825 -1.74265,0.70821 -0.47906,0.20995 -1.23397,0.57913 -1.67754,0.82044 -0.44358,0.2413 -1.0729,0.60387 -1.39847,0.80571 -0.32558,0.20185 -0.94227,0.62231 -1.37043,0.93435 -0.42817,0.31203 -1.09648,0.83725 -1.48519,1.16714 -0.38871,0.3299 -1.20946,1.11262 -1.82388,1.7394 -0.61442,0.62678 -1.35089,1.43144 -1.6366,1.78812 -0.2857,0.35668 -0.73493,0.95045 -0.99832,1.31952 -0.26339,0.36908 -0.70748,1.05034 -0.98692,1.51393 -0.27943,0.46358 -0.7202,1.27861 -0.97947,1.81114 -0.25927,0.53254 -0.65976,1.44754 -0.88993,2.03333 -0.23018,0.58579 -0.5361,1.42958 -0.6798,1.87509 -0.14372,0.44551 -0.36396,1.20074 -0.48942,1.67831 -0.12547,0.47757 -0.31326,1.28947 -0.41729,1.80427 -0.10405,0.5148 -0.24832,1.32811 -0.32063,1.80739 -0.0723,0.47928 -0.17521,1.27808 -0.22872,1.77511 -0.0535,0.49704 -0.12783,1.33941 -0.16518,1.87195 -0.0373,0.53253 -0.11109,1.97038 -0.16387,3.19525 -0.0528,1.22487 -0.12811,4.07159 -0.1674,6.32586 -0.0453,2.60143 -0.0589,8.30834 -0.037,15.62104 0.0189,6.337081 0.0654,12.33553 0.10336,13.329457 0.0379,0.994074 0.11344,2.722443 0.16782,3.840794 0.0544,1.118326 0.15686,2.599726 0.22772,3.292108 0.0709,0.692285 0.17369,1.563715 0.22851,1.936499 0.0548,0.372783 0.17116,1.069923 0.25854,1.549199 0.0874,0.479276 0.27488,1.343802 0.41665,1.921128 0.14178,0.577327 0.40551,1.506846 0.58604,2.065607 0.18054,0.558736 0.49713,1.439608 0.7035,1.957504 0.20638,0.517896 0.53298,1.27615 0.72575,1.685041 0.19277,0.408891 0.51844,1.045404 0.72369,1.414455 0.20526,0.369075 0.64639,1.086342 0.98028,1.593943 0.33389,0.5076 0.89237,1.277369 1.24106,1.710584 0.3487,0.433214 0.93988,1.118838 1.31376,1.523606 0.37388,0.404768 1.02335,1.053846 1.44324,1.44239 0.41992,0.388568 1.06834,0.952037 1.44093,1.252192 0.37261,0.300129 1.0549,0.801118 1.51623,1.1133 0.46133,0.312182 1.09621,0.718877 1.41083,0.903756 0.31465,0.184907 0.91254,0.506942 1.32868,0.715633 0.41614,0.208698 1.059,0.508674 1.42857,0.666594 0.36956,0.157928 1.06672,0.434264 1.54922,0.614069 0.48249,0.179802 1.37896,0.473762 1.99214,0.653225 0.61318,0.179463 1.5828,0.426432 2.1547,0.548831 0.57189,0.122399 1.301115,0.267121 1.620495,0.321648 0.31938,0.05452 1.03071,0.156667 1.580754,0.22699 0.550044,0.07032 1.537202,0.17204 2.193689,0.226037 0.656487,0.054 2.253385,0.144869 3.548607,0.201935 1.295246,0.05707 3.385711,0.125458 4.645476,0.151985 1.259765,0.02652 7.502016,0.05259 13.871805,0.05793 6.369789,0.0053 12.917105,-0.01881 14.549484,-0.05364 z m -28.002099,-8.974375 c -1.348481,-0.02885 -3.482522,-0.09893 -4.742287,-0.155725 -1.259765,-0.0568 -2.638777,-0.132177 -3.064795,-0.167516 -0.426018,-0.03534 -1.230429,-0.121365 -1.787959,-0.191169 -0.557555,-0.0698 -1.470921,-0.216685 -2.02972,-0.326405 -0.558798,-0.10972 -1.457313,-0.32621 -1.996696,-0.481106 -0.53939,-0.154883 -1.39711,-0.446193 -1.90604,-0.647345 -0.50893,-0.201152 -1.26969,-0.540878 -1.69056,-0.754936 -0.4209,-0.214055 -1.05963,-0.583792 -1.41945,-0.821612 -0.35981,-0.237833 -0.88646,-0.615727 -1.17036,-0.839739 -0.2839,-0.224029 -0.95168,-0.846082 -1.48397,-1.382349 -0.53229,-0.536267 -1.18849,-1.265513 -1.45819,-1.620535 -0.26971,-0.355023 -0.64498,-0.892412 -0.83392,-1.194176 -0.18895,-0.301765 -0.55387,-0.984388 -0.81092,-1.516922 -0.25708,-0.532534 -0.60299,-1.345315 -0.76874,-1.806147 -0.16573,-0.460856 -0.3997,-1.187028 -0.5199,-1.613753 -0.12022,-0.426725 -0.30533,-1.211571 -0.41139,-1.744105 -0.10605,-0.532534 -0.25119,-1.41848 -0.32255,-1.968775 -0.0713,-0.550295 -0.15951,-1.363612 -0.19592,-1.807391 -0.0364,-0.443778 -0.10933,-1.750912 -0.16206,-2.904687 -0.0527,-1.153824 -0.12814,-3.639031 -0.16758,-5.522955 -0.0467,-2.230578 -0.0605,-7.813334 -0.0397,-16.008474 0.0188,-7.3854 0.0607,-13.23674 0.10139,-14.1648 0.0382,-0.86982 0.10045,-2.24956 0.13846,-3.06619 0.038,-0.81656 0.113,-1.96392 0.16666,-2.54971 0.0537,-0.5858 0.15462,-1.45552 0.22435,-1.93272 0.0697,-0.4772 0.18595,-1.15983 0.25827,-1.51692 0.0723,-0.3571 0.20457,-0.93977 0.29389,-1.29479 0.0893,-0.35502 0.28917,-1.02562 0.44412,-1.49018 0.15493,-0.46459 0.42999,-1.19076 0.61125,-1.61376 0.18126,-0.42299 0.47559,-1.04274 0.65407,-1.37727 0.17849,-0.33451 0.4885,-0.85733 0.68892,-1.1618 0.20043,-0.30448 0.59735,-0.84394 0.88208,-1.19879 0.28473,-0.35485 0.86623,-0.99395 1.29227,-1.42019 0.42605,-0.42624 1.02125,-0.97348 1.32268,-1.21606 0.30143,-0.24258 0.84999,-0.64188 1.21902,-0.88734 0.36903,-0.24545 1.00779,-0.61794 1.41944,-0.82773 0.41168,-0.2098 1.00981,-0.48994 1.32919,-0.62254 0.31938,-0.13258 0.95814,-0.36861 1.41945,-0.5245 0.4613,-0.1559 1.17266,-0.3673 1.580751,-0.46981 0.408095,-0.10251 1.046854,-0.24553 1.419443,-0.31782 0.372589,-0.0723 0.982329,-0.17631 1.354918,-0.23113 0.372589,-0.0548 1.099283,-0.14269 1.614845,-0.19524 0.515563,-0.0525 1.865653,-0.13947 3.000173,-0.19316 1.134545,-0.0537 3.064551,-0.12669 4.288713,-0.16222 1.224284,-0.0355 7.844148,-0.0643 14.710673,-0.064 6.866526,3.2e-4 13.616975,0.0286 15.001107,0.0629 1.383962,0.0343 3.227692,0.0926 4.097042,0.12961 0.869423,0.037 2.045302,0.0968 2.613171,0.13279 0.567773,0.036 1.424296,0.10908 1.903353,0.16236 0.479057,0.0533 1.305269,0.1694 1.836024,0.25805 0.530754,0.0886 1.317949,0.24555 1.749332,0.3487 0.431383,0.10315 1.158492,0.30894 1.615821,0.45732 0.457329,0.14839 1.12184,0.38498 1.4767,0.52577 0.354861,0.14079 0.979989,0.42346 1.389156,0.6282 0.409168,0.20472 0.984378,0.52141 1.278225,0.70372 0.293848,0.18233 0.819604,0.55035 1.168368,0.81779 0.348764,0.26743 0.961992,0.7979 1.362722,1.17875 0.40073,0.38086 1.00235,1.01201 1.336921,1.40255 0.334572,0.39055 0.819945,1.02957 1.078653,1.42009 0.258708,0.39052 0.602497,0.95695 0.764004,1.25873 0.161494,0.30177 0.422165,0.83916 0.579258,1.19418 0.157097,0.35502 0.43526,1.07905 0.618153,1.60895 0.182883,0.5299 0.431651,1.35775 0.552848,1.83967 0.121197,0.48191 0.280265,1.20983 0.353544,1.61758 0.07326,0.40774 0.190152,1.19203 0.259757,1.74283 0.0696,0.55081 0.156519,1.40814 0.193161,1.90518 0.03664,0.49703 0.110743,1.92037 0.164667,3.16305 0.05392,1.24267 0.125677,4.06012 0.159448,6.26144 0.03377,2.20116 0.06141,7.69111 0.06141,12.19988 0,4.50878 -0.02755,9.998803 -0.06123,12.199885 -0.03368,2.201155 -0.09125,4.699318 -0.127942,5.551255 -0.03669,0.85206 -0.09675,2.11562 -0.133468,2.807832 -0.03672,0.692309 -0.124782,1.778236 -0.195698,2.413212 -0.07092,0.634952 -0.186472,1.491184 -0.256781,1.902709 -0.07032,0.411526 -0.202714,1.082951 -0.294214,1.492062 -0.09149,0.40911 -0.26734,1.077901 -0.390756,1.486157 -0.123416,0.408257 -0.327061,1.018275 -0.452501,1.355537 -0.12544,0.337262 -0.3791,0.948915 -0.563675,1.359197 -0.184569,0.410281 -0.541997,1.094954 -0.794291,1.521508 -0.252295,0.426554 -0.714965,1.106958 -1.028175,1.512018 -0.31321,0.405061 -0.961406,1.129939 -1.440487,1.61085 -0.479057,0.480886 -1.117816,1.07207 -1.419443,1.313745 -0.301627,0.241675 -0.85328,0.642515 -1.225894,0.890777 -0.372613,0.248262 -1.112987,0.664375 -1.645278,0.924689 -0.532292,0.260314 -1.320437,0.604553 -1.75143,0.764987 -0.430993,0.160436 -1.189827,0.408305 -1.686296,0.550807 -0.496444,0.142507 -1.355845,0.348094 -1.909766,0.456855 -0.553921,0.108761 -1.450047,0.253849 -1.991385,0.322404 -0.541338,0.06856 -1.361722,0.154857 -1.823026,0.19176 -0.461304,0.0369 -1.506548,0.09773 -2.322738,0.13518 -0.816189,0.03745 -2.209832,0.09914 -3.096984,0.137103 -0.976671,0.04179 -6.818241,0.07635 -14.807484,0.0876 -7.25694,0.01022 -14.297824,-0.005 -15.646109,-0.03388 z m 16.9366,-15.456614 c 0.479057,-0.05823 1.262984,-0.17777 1.742065,-0.265633 0.479082,-0.08786 1.277518,-0.26412 1.774304,-0.391691 0.49681,-0.127563 1.32429,-0.375418 1.838828,-0.550783 0.514538,-0.175364 1.308244,-0.47747 1.763793,-0.671352 0.455525,-0.193871 1.094284,-0.485863 1.419443,-0.648882 0.325159,-0.16302 0.896077,-0.471298 1.268666,-0.685063 0.372614,-0.213773 1.023273,-0.619045 1.445926,-0.900609 0.422653,-0.281564 1.001545,-0.68943 1.286394,-0.906367 0.284874,-0.216944 0.777904,-0.610921 1.095625,-0.87548 0.317746,-0.264584 0.895858,-0.788555 1.284712,-1.164412 0.388854,-0.375858 0.989816,-1.003564 1.335434,-1.394914 0.345619,-0.391349 0.85467,-1.002026 1.13118,-1.357049 0.276509,-0.355023 0.769978,-1.052162 1.096625,-1.549199 0.326622,-0.497037 0.725645,-1.136087 0.886712,-1.420091 0.161068,-0.284003 0.468889,-0.86821 0.684068,-1.298204 0.215179,-0.429994 0.536144,-1.127134 0.713233,-1.549199 0.177094,-0.422065 0.454257,-1.154531 0.61591,-1.627684 0.161652,-0.473152 0.422652,-1.373663 0.579989,-2.001101 0.157339,-0.627435 0.359689,-1.620045 0.449672,-2.205815 0.08998,-0.58577 0.193884,-1.39906 0.230879,-1.80734 0.037,-0.40828 0.06734,-1.41043 0.06743,-2.22697 9e-5,-0.81656 -0.02891,-1.80417 -0.06445,-2.19469 -0.03554,-0.39052 -0.12403,-1.11672 -0.196649,-1.61375 -0.07261,-0.49704 -0.235373,-1.35393 -0.361688,-1.90422 -0.126316,-0.5503 -0.34496,-1.37816 -0.48591,-1.83967 -0.140949,-0.46152 -0.445502,-1.31843 -0.676825,-1.90422 -0.23132,-0.5858 -0.664266,-1.54437 -0.962138,-2.13014 -0.297846,-0.58579 -0.799509,-1.47757 -1.114816,-1.98171 -0.315307,-0.50413 -0.863522,-1.30296 -1.218261,-1.77511 -0.354763,-0.47218 -0.870594,-1.11991 -1.146323,-1.43944 -0.275729,-0.31952 -0.896394,-0.97309 -1.379255,-1.45236 -0.482861,-0.47928 -1.192144,-1.13285 -1.576194,-1.45237 -0.384051,-0.31953 -1.043294,-0.82796 -1.464995,-1.12987 -0.421702,-0.30188 -1.065607,-0.73578 -1.43088,-0.96419 -0.365274,-0.22841 -1.05612,-0.62675 -1.535178,-0.88523 -0.479057,-0.25846 -1.311853,-0.65889 -1.850679,-0.88983 -0.538802,-0.23094 -1.409835,-0.5652 -1.935615,-0.74281 -0.52578,-0.1776 -1.357381,-0.42555 -1.847973,-0.55098 -0.490591,-0.12543 -1.274518,-0.29866 -1.742065,-0.38498 -0.467523,-0.0863 -1.285566,-0.20782 -1.817857,-0.27002 -0.694139,-0.0811 -1.478651,-0.11386 -2.774361,-0.11572 -1.024979,-0.001 -2.127579,0.0323 -2.548549,0.078 -0.408095,0.0443 -1.192022,0.15523 -1.742066,0.24643 -0.550044,0.0912 -1.455265,0.28012 -2.011625,0.41982 -0.55636,0.1397 -1.441902,0.40074 -1.967877,0.58008 -0.525975,0.17935 -1.333776,0.48594 -1.79508,0.68131 -0.461329,0.19536 -1.245256,0.56627 -1.742066,0.82425 -0.49681,0.25797 -1.216871,0.6613 -1.600165,0.89629 -0.383294,0.23499 -0.978476,0.6236 -1.32268,0.86362 -0.344204,0.24002 -0.988719,0.72581 -1.432294,1.07956 -0.443576,0.35378 -1.344701,1.18247 -2.002505,1.84157 -0.657805,0.65908 -1.47275,1.54691 -1.811029,1.97295 -0.338254,0.42602 -0.820261,1.06507 -1.071117,1.42009 -0.250831,0.35502 -0.6441,0.95104 -0.87391,1.32445 -0.229804,0.37342 -0.622884,1.07056 -0.873521,1.5492 -0.250636,0.47864 -0.634979,1.29143 -0.854109,1.80622 -0.219125,0.5148 -0.55275,1.40075 -0.741398,1.96878 -0.188648,0.56803 -0.432042,1.39589 -0.540875,1.83967 -0.108836,0.44377 -0.269145,1.199 -0.356275,1.6783 -0.08711,0.47928 -0.208639,1.30714 -0.270072,1.83967 -0.07924,0.68702 -0.111684,1.47447 -0.111684,2.71098 0,1.22552 0.03257,2.02449 0.109719,2.6917 0.06034,0.52187 0.180278,1.35127 0.266511,1.84313 0.08624,0.49187 0.256952,1.28488 0.379344,1.762258 0.122402,0.477373 0.330231,1.202007 0.461841,1.610288 0.13161,0.408281 0.382587,1.105421 0.557701,1.549199 0.175126,0.443779 0.546142,1.271636 0.82448,1.839668 0.278339,0.568031 0.734059,1.410747 1.012714,1.872676 0.278655,0.46193 0.709039,1.130013 0.956407,1.484645 0.247369,0.354632 0.740935,1.007711 1.096845,1.451319 0.355909,0.443607 1.053584,1.224575 1.550394,1.735517 0.496809,0.510943 1.222674,1.204716 1.613016,1.541734 0.390342,0.337018 0.99201,0.827321 1.336995,1.089562 0.345009,0.262242 0.998277,0.718243 1.451705,1.013372 0.453428,0.295128 1.089919,0.687234 1.414395,0.871357 0.324476,0.18413 1.006788,0.535584 1.51623,0.78104 0.509441,0.245432 1.216602,0.561078 1.571463,0.701433 0.35486,0.140346 1.008129,0.376273 1.451705,0.524288 0.443576,0.148018 1.125888,0.352071 1.516229,0.453464 0.390342,0.101394 1.07463,0.258241 1.520644,0.348558 0.446014,0.09032 1.171855,0.210562 1.613016,0.267194 0.441162,0.05663 1.092431,0.128625 1.447292,0.159965 0.35486,0.03134 1.400105,0.04672 2.322738,0.03419 1.011714,-0.01373 2.023232,-0.06481 2.548549,-0.128666 z m -4.484286,-8.854098 c -0.106459,-0.01266 -0.425824,-0.05379 -0.709722,-0.0914 -0.283898,-0.03761 -0.806508,-0.127549 -1.161369,-0.199871 -0.354861,-0.07232 -0.970429,-0.229848 -1.36794,-0.350046 -0.397511,-0.120206 -1.014787,-0.334968 -1.371744,-0.477251 -0.356958,-0.142282 -0.946312,-0.407939 -1.309659,-0.590354 -0.363347,-0.182413 -0.92195,-0.490791 -1.241329,-0.685307 -0.31938,-0.194516 -0.914586,-0.602895 -1.322681,-0.907538 -0.435211,-0.324868 -1.156175,-0.969067 -1.743724,-1.558055 -0.550946,-0.552296 -1.207579,-1.280102 -1.459142,-1.617388 -0.251563,-0.337286 -0.619909,-0.862916 -0.818531,-1.168072 -0.198624,-0.305155 -0.533656,-0.886117 -0.744495,-1.291007 -0.210849,-0.40489 -0.515075,-1.070191 -0.676045,-1.478472 -0.160977,-0.408289 -0.396414,-1.086569 -0.523195,-1.507309 -0.126781,-0.42075 -0.301017,-1.14692 -0.387172,-1.61376 -0.08616,-0.46683 -0.191491,-1.24092 -0.234059,-1.72019 -0.04735,-0.53315 -0.06194,-1.29743 -0.03759,-1.96878 0.02189,-0.60353 0.08583,-1.40235 0.142093,-1.77511 0.05626,-0.37276 0.173436,-0.99547 0.26039,-1.38374 0.08695,-0.38828 0.284899,-1.08542 0.439894,-1.5492 0.154988,-0.46378 0.430725,-1.17588 0.61274,-1.58245 0.182019,-0.40658 0.508734,-1.04563 0.726035,-1.42009 0.217301,-0.37447 0.577063,-0.94231 0.799485,-1.26183 0.222407,-0.31953 0.635955,-0.85689 0.919,-1.19418 0.283044,-0.33726 0.801314,-0.88968 1.151712,-1.2276 0.350398,-0.33789 0.866302,-0.8007 1.146469,-1.02845 0.280167,-0.22775 0.873106,-0.65708 1.317633,-0.95408 0.444527,-0.29701 1.246011,-0.75382 1.781082,-1.01516 0.535071,-0.26133 1.292223,-0.59118 1.682565,-0.733 0.390342,-0.14182 1.130716,-0.36151 1.645279,-0.4882 0.514562,-0.1267 1.240403,-0.27696 1.613016,-0.33392 0.372614,-0.057 1.260521,-0.11967 1.97312,-0.13936 0.804167,-0.0222 1.587363,-0.007 2.064664,0.0411 0.422946,0.0423 1.199777,0.16272 1.726288,0.26761 0.526512,0.1049 1.324949,0.31018 1.774304,0.45617 0.449355,0.14601 1.150932,0.40851 1.559026,0.58331 0.408095,0.17482 1.03015,0.47879 1.382328,0.6755 0.352178,0.19671 0.903832,0.53351 1.225894,0.74847 0.322062,0.21496 0.861351,0.6098 1.198484,0.87745 0.337132,0.26766 0.948116,0.82259 1.357771,1.23317 0.409655,0.41057 0.94202,0.99339 1.183048,1.29518 0.241023,0.30176 0.67029,0.89724 0.953944,1.32328 0.283654,0.42604 0.744422,1.23936 1.023931,1.80739 0.279509,0.56803 0.62681,1.38076 0.771759,1.80603 0.144948,0.42526 0.337571,1.06431 0.428066,1.42009 0.09048,0.35578 0.219308,0.96492 0.286288,1.35363 0.06699,0.38871 0.154394,1.14394 0.194242,1.67831 0.03985,0.53434 0.05337,1.32011 0.03005,1.74615 -0.02334,0.42602 -0.07221,1.03604 -0.108636,1.35554 -0.03642,0.31952 -0.135516,0.92513 -0.220208,1.34578 -0.08469,0.42065 -0.229474,1.01612 -0.321745,1.32328 -0.09227,0.30716 -0.272851,0.84779 -0.401266,1.20145 -0.128425,0.353657 -0.442747,1.065312 -0.69848,1.581476 -0.255733,0.516164 -0.728108,1.330603 -1.049731,1.809879 -0.321599,0.479276 -0.828699,1.161899 -1.126888,1.516922 -0.298188,0.355023 -0.835405,0.926933 -1.193826,1.270904 -0.358421,0.343971 -0.921365,0.835079 -1.250986,1.091319 -0.329622,0.256265 -0.888128,0.65447 -1.241184,0.884922 -0.353031,0.230448 -0.962747,0.587061 -1.354918,0.792483 -0.392171,0.205421 -1.032417,0.503819 -1.422759,0.663105 -0.390342,0.159287 -1.058144,0.392789 -1.483968,0.518872 -0.425823,0.12609 -1.060777,0.2882 -1.411005,0.360268 -0.350227,0.07206 -0.988108,0.17453 -1.417516,0.227718 -0.493372,0.06111 -1.256449,0.09314 -2.073102,0.08703 -0.710794,-0.0053 -1.37945,-0.02003 -1.485894,-0.0327 z m 29.296979,-37.46378 c 0.210563,-0.0373 0.571552,-0.12851 0.802216,-0.20268 0.230662,-0.0742 0.593597,-0.22189 0.806509,-0.32828 0.212916,-0.1064 0.561334,-0.31064 0.774246,-0.45388 0.212916,-0.14324 0.579184,-0.45461 0.813921,-0.69192 0.234737,-0.23731 0.550459,-0.61367 0.701601,-0.83634 0.15115,-0.22268 0.37176,-0.61481 0.49025,-0.87136 0.118488,-0.25658 0.281387,-0.69582 0.362006,-0.97612 0.12584,-0.43753 0.146187,-0.65571 0.143836,-1.54242 -0.0025,-0.93435 -0.01934,-1.08687 -0.176896,-1.60009 -0.09579,-0.31201 -0.278972,-0.77677 -0.407095,-1.03279 -0.128117,-0.25602 -0.377051,-0.66103 -0.553189,-0.9 -0.176138,-0.23896 -0.517514,-0.61658 -0.758639,-0.83915 -0.241119,-0.22257 -0.673924,-0.54642 -0.961821,-0.71966 -0.287898,-0.17324 -0.80685,-0.41101 -1.153297,-0.52841 -0.366688,-0.12424 -0.894224,-0.24411 -1.262497,-0.28686 -0.347935,-0.0404 -0.827016,-0.0543 -1.064582,-0.031 -0.237583,0.0233 -0.675191,0.0984 -0.972453,0.16687 -0.297262,0.0684 -0.779781,0.23661 -1.072263,0.37373 -0.292483,0.13712 -0.717038,0.37515 -0.943483,0.52897 -0.226443,0.15381 -0.605497,0.47621 -0.842355,0.71642 -0.236849,0.24022 -0.578405,0.66198 -0.75903,0.93723 -0.180617,0.27524 -0.415581,0.72665 -0.522146,1.00312 -0.106568,0.27646 -0.242245,0.69838 -0.301505,0.93757 -0.07597,0.30664 -0.106768,0.70141 -0.104437,1.33858 0.0026,0.71302 0.03252,1.01266 0.141776,1.42009 0.07616,0.28403 0.253099,0.75633 0.39322,1.04955 0.14011,0.29323 0.348642,0.67084 0.463426,0.83916 0.114771,0.1683 0.384538,0.49096 0.599498,0.717 0.21495,0.22605 0.552555,0.53599 0.750201,0.68874 0.197666,0.15277 0.546069,0.37889 0.774246,0.50246 0.228172,0.12359 0.589061,0.28644 0.801973,0.3619 0.212916,0.0755 0.575844,0.17768 0.806508,0.22716 0.230659,0.0495 0.740691,0.0923 1.133398,0.0951 0.392708,0.003 0.886274,-0.0254 1.096845,-0.0627 z"
       id="path1"
       sodipodi:nodetypes="csssssssssssssssssssssssssscssccsccsscccsscscssscssscsssssssssssssssssssssssssssssssssssssssssssssssssssscccsssssssssscsssssssssssssssssssssssssssssssssssssssssssssssssscssssccccsssssssscsccssssssssssscssssssscssssssssssssscccssssssssssssccssssssssssssscscssssssssssssssssssssssssssssssssssssssssssssssssssssssssssssssccssssssssssssssssssssssssssscssssscscsssssssssscsssccscssssscsssssssssssssssscssssssssscssssssssssssssssssssssscsssssssssssssssssssssssssssssssssssssssccsssssssssssssssssssssssssssssscsssss"
       style="stroke-width:0.243913" /></g></svg>
