<?xml version="1.0" encoding="UTF-8" standalone="no"?>
<!-- Created with Inkscape (http://www.inkscape.org/) -->

<svg
   width="135.46666mm"
   height="135.46666mm"
   viewBox="0 0 135.46666 135.46666"
   version="1.1"
   id="svg1"
   xml:space="preserve"
   inkscape:version="1.4.2 (f4327f4, 2025-05-13)"
   sodipodi:docname="Lattes.svg"
   xmlns:inkscape="http://www.inkscape.org/namespaces/inkscape"
   xmlns:sodipodi="http://sodipodi.sourceforge.net/DTD/sodipodi-0.dtd"
   xmlns="http://www.w3.org/2000/svg"
   xmlns:svg="http://www.w3.org/2000/svg"><sodipodi:namedview
     id="namedview1"
     pagecolor="#505050"
     bordercolor="#ffffff"
     borderopacity="1"
     inkscape:showpageshadow="0"
     inkscape:pageopacity="0"
     inkscape:pagecheckerboard="1"
     inkscape:deskcolor="#505050"
     inkscape:document-units="mm"
     inkscape:zoom="0.65701509"
     inkscape:cx="81.428876"
     inkscape:cy="338.6528"
     inkscape:window-width="2400"
     inkscape:window-height="1261"
     inkscape:window-x="2391"
     inkscape:window-y="-9"
     inkscape:window-maximized="1"
     inkscape:current-layer="layer1" /><defs
     id="defs1" /><g
     inkscape:label="Camada 1"
     inkscape:groupmode="layer"
     id="layer1"
     transform="translate(31.630844,71.229973)"><path
       id="path4"
       style="stroke-width:0.17921"
       inkscape:label="path4"
       d="M 36.10249,-71.229973 A 67.733268,67.733268 0 0 0 -31.630844,-3.4966387 67.733268,67.733268 0 0 0 36.10249,64.236694 67.733268,67.733268 0 0 0 103.83582,-3.4966387 67.733268,67.733268 0 0 0 36.10249,-71.229973 Z m 8.537721,15.020467 c 3.081146,0.08574 6.251631,0.350776 8.556272,0.768647 0.788528,0.142973 2.119167,0.383234 2.956981,0.533782 2.916968,0.524159 10.637863,2.8786 10.577296,3.225447 -0.017,0.09738 -1.254718,0.318423 -2.750472,0.49143 -5.098913,0.589767 -8.91057,1.307261 -13.113547,2.468001 -0.788528,0.217768 -1.740171,0.468365 -2.114479,0.556884 -1.367127,0.323308 -5.3193,1.805324 -7.877581,2.95418 -0.961552,0.431808 -1.782104,0.785098 -1.823261,0.785098 -0.544627,0 -6.155226,3.528734 -8.525121,5.361627 -3.328683,2.574435 -8.602125,8.684124 -8.602125,9.966159 0,0.03788 -0.22992,0.458386 -0.510681,0.934557 -0.280762,0.47617 -0.694403,1.346466 -0.919156,1.934218 -0.224759,0.587752 -0.564568,1.471839 -0.755346,1.96467 -2.97389,7.682377 -3.154344,19.6822507 -0.472879,31.451519 0.882443,3.873156 1.196569,4.987182 2.95628,10.48384 0.735929,2.29875 0.719021,2.336636 -0.925456,2.040275 -0.869227,-0.15665 -2.187439,-0.371044 -5.91396,-0.961159 -0.985662,-0.156084 -2.47759,-0.395968 -3.315403,-0.533082 C 9.3735839,17.775692 7.1850157,17.424971 5.2575572,17.12522 4.2226131,16.96427 2.7824576,16.718688 2.057312,16.579537 1.3321664,16.440385 0.54161078,16.326471 0.30055486,16.326471 c -1.56311446,0 -2.89192136,-0.543692 -3.20164526,-1.31013 C -3.2772538,14.085473 -4.750497,9.3244155 -4.9634165,8.3515843 -5.0497019,7.9573204 -5.2899872,6.8686138 -5.4975491,5.9322366 -5.7051177,4.9958594 -5.9100585,3.9877974 -5.9529269,3.6920997 -5.995802,3.3964013 -6.1684566,2.267373 -6.3365503,1.183147 c -1.3666067,-8.8146971 0.3703593,-20.784742 4.1701546,-28.736754 0.5346525,-1.118905 0.9723591,-2.067711 0.9723591,-2.108529 0,-0.04082 0.61800038,-1.101199 1.3734837,-2.356344 5.5557806,-9.230246 14.3173929,-16.97393 23.0832089,-20.401345 0.89009,-0.348022 1.994222,-0.787541 2.45365,-0.97691 0.459421,-0.189369 1.265876,-0.458554 1.792109,-0.598186 4.509715,-1.196618 4.564049,-1.208024 9.111057,-1.907267 1.947787,-0.299532 4.939593,-0.393062 8.020739,-0.307318 z m 24.144472,27.477027 c 0.242478,-0.0162 0.868632,0.868378 2.011922,2.684664 3.807192,6.048298 7.558098,15.534926 7.582516,19.1780203 0.002,0.2893538 0.120043,1.1712417 0.262514,1.9597693 1.458961,8.0748419 -1.574934,19.0103534 -7.408198,26.7024304 -6.343877,8.365398 -19.592929,17.998481 -30.044086,21.844133 -0.394264,0.145078 -1.160391,0.435694 -1.702505,0.645789 -1.381728,0.535496 -5.058926,1.760872 -6.158975,2.052525 -0.506045,0.134159 -1.524691,0.407957 -2.263939,0.608339 -1.226372,0.332429 -2.696888,0.643148 -6.451594,1.362631 C 21.402784,48.920847 11.947482,49.48688 10.658037,49.141326 10.224388,49.025109 10.009916,48.582716 8.5218563,44.731405 7.4253705,41.89353 6.2844802,38.960617 5.5239236,37.025334 4.7035112,34.937732 3.8110035,32.642386 3.0153205,30.57374 2.749928,29.883778 2.1845198,28.43217 1.7590939,27.347944 1.333668,26.263717 0.70418417,24.65082 0.36005853,23.763725 0.01592612,22.876631 -0.48299036,21.598921 -0.74880957,20.924351 -1.4762987,19.078206 -1.927619,19.11666 4.8991357,20.446222 c 0.9363718,0.182367 2.4283068,0.417685 3.3154019,0.522932 0.8870958,0.105248 2.6359494,0.319228 3.8866374,0.475679 2.391404,0.299145 12.079746,0.415728 14.221018,0.171161 8.480047,-0.968556 12.962709,-2.091356 18.334469,-4.592631 0.822956,-0.383196 1.524414,-0.696892 1.558645,-0.696892 0.03423,0 1.054389,-0.59942 2.267088,-1.332181 6.156237,-3.719847 12.862662,-10.667403 16.099581,-16.6785185 1.023544,-1.9007811 1.965721,-3.8144918 1.965721,-3.9930434 0,-0.095495 0.190019,-0.6071339 0.42248,-1.1368697 2.266158,-5.1640314 3.180246,-14.1215594 2.005968,-19.6575494 -0.314906,-1.484591 -0.412225,-2.246038 -0.191462,-2.260788 z m -27.163406,0.578935 c 8.503334,-0.137505 16.328847,6.805566 16.328847,16.075081 0,9.9772211 -9.640751,17.8874738 -19.180121,15.7369609 C 23.288272,0.16836513 21.210997,-20.578486 35.713616,-26.868615 c 1.946657,-0.844312 3.945353,-1.253197 5.907661,-1.284929 z" /></g></svg>
