<?xml version="1.0" encoding="UTF-8" standalone="no"?>
<!-- Created with Inkscape (http://www.inkscape.org/) -->

<svg
   width="135.46666mm"
   height="135.46666mm"
   viewBox="0 0 135.46666 135.46666"
   version="1.1"
   id="svg1"
   xml:space="preserve"
   inkscape:version="1.4.2 (f4327f4, 2025-05-13)"
   sodipodi:docname="LinkedIn.svg"
   xmlns:inkscape="http://www.inkscape.org/namespaces/inkscape"
   xmlns:sodipodi="http://sodipodi.sourceforge.net/DTD/sodipodi-0.dtd"
   xmlns="http://www.w3.org/2000/svg"
   xmlns:svg="http://www.w3.org/2000/svg"><sodipodi:namedview
     id="namedview1"
     pagecolor="#505050"
     bordercolor="#ffffff"
     borderopacity="1"
     inkscape:showpageshadow="0"
     inkscape:pageopacity="0"
     inkscape:pagecheckerboard="1"
     inkscape:deskcolor="#505050"
     inkscape:document-units="mm"
     inkscape:zoom="0.92915965"
     inkscape:cx="255.60731"
     inkscape:cy="231.93"
     inkscape:window-width="2400"
     inkscape:window-height="1261"
     inkscape:window-x="2391"
     inkscape:window-y="-9"
     inkscape:window-maximized="1"
     inkscape:current-layer="layer1" /><defs
     id="defs1" /><g
     inkscape:label="Camada 1"
     inkscape:groupmode="layer"
     id="layer1"
     transform="translate(16.799651,41.893768)"><path
       d="M 8.3856378,93.286409 C 7.4456631,93.11381 5.8550442,92.707521 4.8509292,92.383559 3.8468142,92.059589 2.1853099,91.400806 1.1586974,90.919579 0.13208483,90.438362 -1.6222489,89.438198 -2.739822,88.696992 c -1.1175731,-0.741197 -3.0998149,-2.374461 -4.4049817,-3.629456 -1.3051669,-1.255003 -2.9896073,-3.109515 -3.7432013,-4.121127 -0.753594,-1.011622 -1.843296,-2.706631 -2.421559,-3.766692 -0.578264,-1.06006 -1.39027,-2.828087 -1.804459,-3.928949 -0.414189,-1.100862 -0.962896,-3.031486 -1.219349,-4.290273 -0.458767,-2.251829 -0.466279,-2.943351 -0.466279,-42.918879 0,-34.7138653 0.04898,-40.911122 0.336366,-42.559578 0.185002,-1.061172 0.557192,-2.645847 0.82709,-3.521501 0.269898,-0.875653 0.934341,-2.542629 1.47654,-3.704391 0.542199,-1.161762 1.582292,-3.016269 2.311317,-4.121127 0.809004,-1.22607 2.3991926,-3.086538 4.0809576,-4.774586 1.5155022,-1.521165 3.4764556,-3.265887 4.3576743,-3.877162 0.8812186,-0.611275 2.6727067,-1.65924 3.98108467,-2.328811 1.30837793,-0.669572 3.16998393,-1.467384 4.13690203,-1.772919 0.9669182,-0.305534 2.6115442,-0.71747 3.6547247,-0.915413 1.6799147,-0.318763 6.5473847,-0.359896 42.5881767,-0.359896 35.952596,0 40.911248,0.0417 42.578532,0.358067 1.037882,0.196936 2.826002,0.669884 3.973602,1.050995 1.147609,0.381111 3.081434,1.216634 4.297404,1.856718 1.21597,0.640084 3.07349,1.80607 4.12782,2.59108 1.05434,0.785009 2.94345,2.494969 4.19802,3.799909 1.25457,1.30494 2.82846,3.194722 3.49754,4.199514 0.66907,1.004792 1.66702,2.754149 2.21766,3.887458 0.55064,1.133311 1.26143,2.884789 1.57953,3.892176 0.3181,1.007387 0.7065,2.295239 0.86312,2.861894 0.22096,0.799482 0.30071,10.2846308 0.35601,42.341368 0.0632,36.639198 0.0308,41.545774 -0.2865,43.386309 -0.19678,1.141372 -0.67181,3.002476 -1.05562,4.135786 -0.38381,1.13331 -1.16635,2.936303 -1.73895,4.006651 -0.5726,1.070348 -1.54024,2.686154 -2.1503,3.590678 -0.61006,0.904523 -2.01105,2.592554 -3.11333,3.751176 -1.10227,1.158623 -2.82903,2.746354 -3.83723,3.528291 -1.0082,0.781945 -2.56708,1.854079 -3.46419,2.382535 -0.89711,0.528456 -2.4936,1.327336 -3.547762,1.775282 -1.054162,0.447954 -2.895157,1.087717 -4.091089,1.421691 l -2.174443,0.607236 -41.54316,0.03461 C 17.324146,93.594215 9.7972698,93.54567 8.3856378,93.286435 Z M 26.231284,39.155063 V 10.536125 H 17.647985 9.0646871 V 39.155063 67.774 h 8.5832979 8.583299 z m 29.297657,12.612473 c 0,-12.837861 0.06397,-16.339041 0.323156,-17.686504 0.177735,-0.924021 0.539995,-2.257377 0.805024,-2.963013 0.265027,-0.705636 0.866704,-1.833971 1.33706,-2.507412 0.470355,-0.67344 1.289261,-1.555604 1.819792,-1.960366 0.53053,-0.404761 1.560176,-0.966541 2.288101,-1.248398 1.077512,-0.41722 1.812733,-0.516538 3.955713,-0.534359 2.394142,-0.01991 2.749134,0.03294 3.924962,0.584365 0.711013,0.33344 1.711741,1.025362 2.22384,1.537603 0.5121,0.512242 1.192843,1.448035 1.512761,2.07954 0.319919,0.631505 0.754584,1.79409 0.965921,2.583524 0.339881,1.269596 0.393926,3.437918 0.468046,18.778408 L 75.237107,67.774 h 8.80934 8.809344 L 92.777157,46.882176 C 92.708296,28.579109 92.652601,25.802045 92.327666,24.470678 92.123678,23.634858 91.628622,22.162542 91.227559,21.198866 90.826487,20.235189 90.009238,18.703937 89.411453,17.796082 88.81366,16.888227 87.666258,15.501677 86.861674,14.714858 86.057082,13.92804 84.883788,12.910795 84.254342,12.454315 83.624899,11.997835 82.348416,11.266541 81.417712,10.829217 80.487007,10.391894 79.237601,9.8891461 78.641253,9.7120004 78.044904,9.5348555 77.003896,9.2841517 76.327903,9.1548811 75.651909,9.0256114 73.957462,8.914916 72.562465,8.9088925 c -1.81007,-0.00779 -3.113367,0.1261242 -4.551401,0.4677515 -1.108274,0.2632883 -2.696402,0.802461 -3.529173,1.198162 -0.832771,0.395702 -2.286626,1.237215 -3.230789,1.870029 -0.944163,0.632815 -2.549369,1.981899 -3.567125,2.997966 -1.017755,1.016067 -2.1765,2.257224 -2.574989,2.758127 l -0.724525,0.910733 V 14.823894 10.536125 H 46.258979 38.133457 V 39.155063 67.774 h 8.697742 8.697742 z M 19.93334,2.1706949 c 0.743345,-0.1936706 1.89232,-0.6616195 2.553279,-1.0398863 0.660957,-0.37826684 1.679859,-1.21968759 2.264225,-1.86982384 0.584366,-0.65013636 1.30145,-1.65377266 1.593518,-2.23030306 0.292069,-0.5765303 0.658022,-1.6938785 0.813228,-2.482996 0.158597,-0.806355 0.223535,-2.0631002 0.148264,-2.8693744 -0.07366,-0.7890385 -0.347053,-1.9944703 -0.607537,-2.6787373 -0.260485,-0.684268 -0.830898,-1.729743 -1.267585,-2.323279 -0.436688,-0.593537 -1.31049,-1.487551 -1.941783,-1.986698 -0.631293,-0.499147 -1.740141,-1.129222 -2.464105,-1.400167 -0.723964,-0.270945 -1.985924,-0.548717 -2.804355,-0.617271 -0.81843,-0.06855 -2.077159,-0.0023 -2.797175,0.147352 -0.720015,0.149599 -1.916347,0.575517 -2.658515,0.946485 -0.754737,0.377253 -1.856219,1.210529 -2.499477,1.890869 -0.6325453,0.669008 -1.3679465,1.643547 -1.634225,2.165641 -0.2662785,0.522093 -0.6381514,1.540705 -0.8263842,2.2635799 -0.1882328,0.7228753 -0.3410187,1.8850846 -0.3395247,2.5826874 0.00147,0.6976028 0.1402845,1.7835096 0.308423,2.4131262 0.1681386,0.6296166 0.5402702,1.6037285 0.8269587,2.164693 0.2866894,0.5609645 1.1006449,1.5921794 1.8087902,2.29158864 0.708146,0.69940918 1.752469,1.50622096 2.320718,1.79291496 0.568249,0.2866939 1.495245,0.6652243 2.059992,0.8411786 0.564746,0.1759542 1.648919,0.3268089 2.409272,0.3352327 0.760353,0.00842 1.990653,-0.143142 2.733998,-0.3368125 z"
       id="path1"
       style="stroke-width:0.865208" /></g></svg>
