<?xml version="1.0" encoding="UTF-8" standalone="no"?>
<svg
   width="626.24957mm"
   height="541.00281mm"
   version="1.1"
   viewBox="0 0 626.24957 541.00281"
   xml:space="preserve"
   id="svg1"
   sodipodi:docname="Membros.svg"
   inkscape:version="1.4.2 (f4327f4, 2025-05-13)"
   xmlns:inkscape="http://www.inkscape.org/namespaces/inkscape"
   xmlns:sodipodi="http://sodipodi.sourceforge.net/DTD/sodipodi-0.dtd"
   xmlns="http://www.w3.org/2000/svg"
   xmlns:svg="http://www.w3.org/2000/svg"><defs
     id="defs1" /><sodipodi:namedview
     id="namedview1"
     pagecolor="#ffffff"
     bordercolor="#000000"
     borderopacity="0.25"
     inkscape:showpageshadow="2"
     inkscape:pageopacity="0.0"
     inkscape:pagecheckerboard="0"
     inkscape:deskcolor="#d1d1d1"
     inkscape:document-units="mm"
     inkscape:zoom="0.29159523"
     inkscape:cx="1207.1528"
     inkscape:cy="1296.3175"
     inkscape:window-width="1920"
     inkscape:window-height="991"
     inkscape:window-x="-9"
     inkscape:window-y="-9"
     inkscape:window-maximized="1"
     inkscape:current-layer="g1" /><g
     transform="translate(-85.345055,-22.339114)"
     id="g1"
     style="fill:none;stroke:#000000;stroke-width:15;stroke-dasharray:none;stroke-opacity:1"><path
       id="path6"
       style="fill:none;stroke:#000000;stroke-width:20;stroke-miterlimit:4.5;stroke-dasharray:none;stroke-opacity:1"
       d="M 404.64029 32.401032 C 398.18658 32.232618 391.38835 32.408132 384.23947 32.925031 C 342.09147 35.972031 317.28272 52.932018 304.22472 87.624018 C 297.32762 105.94802 293.39205 144.26128 295.67485 170.86028 C 300.37385 225.61328 334.52441 270.33299 379.49041 280.61999 L 379.48627 280.62051 C 388.85327 282.76341 411.30962 282.16622 420.85222 279.52032 C 463.31722 267.74232 495.69974 223.40328 500.20914 170.86028 C 502.49164 144.26128 498.55679 105.94802 491.65979 87.624018 C 478.11291 51.625643 449.81625 33.579931 404.64029 32.401032 z M 254.90008 57.140607 C 249.93543 57.084007 244.97668 57.231717 240.60018 57.637218 C 198.89718 61.500218 178.02246 82.556246 171.89946 126.93325 C 170.00513 140.66225 169.94426 171.77152 171.79456 180.51602 C 180.64456 222.34102 208.36547 253.65659 241.44147 259.19339 L 241.44147 259.19236 C 254.74947 261.42016 271.90954 258.91337 284.50654 252.90127 L 291.86165 249.3914 L 285.56643 237.32806 C 278.29803 223.40106 273.31889 209.23945 269.52709 191.70345 C 267.19307 180.91045 266.85329 175.96823 266.85129 152.84123 C 266.84829 116.31323 270.50039 93.621281 279.83499 72.173281 C 282.09009 66.991881 284.04584 62.282587 284.18046 61.708287 C 284.74146 59.317692 269.79405 57.310422 254.90008 57.140607 z M 540.99838 57.141124 C 526.1047 57.310973 511.15835 59.318209 511.71903 61.708804 C 511.85373 62.282904 513.80888 66.992198 516.06398 72.173798 C 525.39878 93.621798 529.0512 116.31374 529.0482 152.84174 C 529.0462 175.96874 528.70568 180.91097 526.37188 191.70397 C 522.57988 209.23897 517.60095 223.40158 510.33255 237.32858 L 504.03733 249.39192 L 511.45135 252.93021 C 515.52935 254.87641 521.97222 257.2558 525.76882 258.21774 L 525.76933 258.21877 C 535.23233 260.61637 555.1248 259.83484 563.936 256.71964 C 594.407 245.94664 616.06363 218.51906 624.10493 180.51706 C 625.95501 171.77206 625.89423 140.66176 624.00003 126.93376 C 617.87703 82.557759 597.00228 61.501635 555.29828 57.637735 C 550.92194 57.232249 545.96335 57.08454 540.9989 57.141124 L 540.99838 57.141124 z M 207.89261 277.06982 L 198.1361 279.05884 C 157.9901 287.24384 131.4602 299.60866 118.2862 316.27466 C 103.9708 334.38566 99.160571 354.09764 96.895771 403.92564 L 95.499474 434.63178 L 98.810383 438.9726 C 108.59338 451.7986 132.54472 464.19878 163.06072 472.23568 C 163.06072 472.23568 168.67969 473.63911 169.08465 473.69761 C 175.10851 475.16311 176.01446 467.99232 176.01446 457.50532 C 176.01446 442.24332 178.13997 417.47245 180.86687 400.96045 C 189.13687 350.88645 209.00785 320.81716 247.67985 299.86016 L 256.34289 295.16587 L 248.85755 294.36695 C 232.85555 292.65795 220.36743 288.02209 212.01743 280.69079 L 207.89261 277.06982 z M 589.04713 277.07344 L 584.92283 280.6944 C 576.57283 288.0254 564.08418 292.66177 548.08218 294.37057 L 540.59737 295.16949 L 549.25989 299.86429 C 587.93189 320.81829 607.80287 350.88707 616.07287 400.96407 C 618.79977 417.47607 620.9258 442.24693 620.9258 457.50893 C 620.9258 463.12793 621.25959 469.39525 621.66787 471.43625 L 621.66736 471.44038 C 622.20566 474.13198 622.93392 474.99809 624.31732 474.59368 C 625.36652 474.28708 629.66943 473.18795 633.87953 472.15145 C 662.48453 465.10845 688.40576 451.72473 698.12936 438.97673 L 701.44027 434.63539 L 700.045 403.92926 C 697.78 354.10126 692.97006 334.38928 678.65406 316.27828 C 665.48006 299.61128 638.94964 287.24686 598.80364 279.06246 L 589.04713 277.07344 z M 457.16835 302.13651 C 454.33572 302.04661 453.15795 302.91292 449.52128 306.03704 C 442.95528 311.67774 430.05061 317.86028 419.69261 320.32868 C 408.75961 322.93388 387.11667 322.93388 376.18467 320.32868 C 365.84867 317.86568 352.92494 311.6804 346.39734 306.0727 C 341.58664 301.94026 341.11057 301.79152 335.20887 302.57007 C 324.03387 304.04407 288.93005 313.47921 276.41505 318.37221 C 237.31005 333.66121 218.5079 356.02302 210.0439 397.31002 C 206.0847 416.62302 204.89933 430.12607 204.02412 465.88207 L 203.25569 497.30702 L 210.85987 504.91173 C 238.62987 532.68173 295.58929 549.74416 370.47029 552.72586 L 370.47029 552.72534 C 383.31229 553.23399 398.854 553.47323 405.0072 553.25089 C 444.1472 551.83629 453.32878 551.25009 469.18778 549.15399 C 523.91878 541.91999 566.51563 525.42804 586.25763 503.82704 L 592.24951 497.27085 L 592.24951 479.24301 C 592.24951 440.03601 588.63132 403.96177 582.68472 383.87777 C 573.20872 351.87477 553.85119 331.81769 519.46119 318.37169 C 506.90919 313.46469 471.72961 303.95909 460.70561 302.49669 C 459.24143 302.30247 458.11257 302.16648 457.16835 302.13651 z " /></g></svg>
