<svg width="135.47mm" height="135.47mm" version="1.1" viewBox="0 0 135.47 135.47" xml:space="preserve" xmlns="http://www.w3.org/2000/svg"><g transform="translate(-3.175 21.96)"><path d="m67.27 113.42c-15.39-0.98024-29.17-6.5465-40.677-16.431-1.6851-1.4476-5.4078-5.1766-6.8912-6.9029-6.1944-7.2087-10.79-15.467-13.493-24.249-7.4279-24.129-0.98693-50.129 16.83-67.937 4.3247-4.3225 9.0827-7.9722 14.245-10.927 18.493-10.584 40.975-11.831 60.543-3.3596 16.907 7.3196 30.192 21.357 36.638 38.712 1.8881 5.0834 3.2596 11.079 3.8645 16.894 0.28987 2.7868 0.32893 9.8273 0.069 12.435-0.76638 7.689-2.4721 14.416-5.3275 21.012-6.8092 15.728-19.529 28.452-35.244 35.256-6.5005 2.8143-12.948 4.483-20.304 5.2546-1.8243 0.19137-8.5573 0.35091-10.253 0.24294zm-18.487-65.169 0.033377-28.275-0.29796-0.072779c-0.16388-0.04003-1.9648-0.05608-4.0021-0.03567l-3.7042 0.03711-0.03392 28.178c-0.01865 15.498-0.0053 28.253 0.02968 28.345 0.04973 0.13085 0.92253 0.1597 4.0027 0.13229l3.9391-0.03505zm38.049 28.142c7.4091-0.86669 13.651-3.8525 18.375-8.7893 3.8807-4.056 6.3773-9.0493 7.3914-14.783 0.3949-2.2327 0.43119-6.5946 0.0735-8.8377-1.8858-11.827-9.677-20.368-21.059-23.087-4.0417-0.96548-6.2392-1.0796-19.844-1.0305l-10.848 0.03915-0.06676 56.687h12.139c9.9614 0 12.444-0.03568 13.84-0.19893zm-17.748-7.2423c-0.12489-0.15049-0.15324-4.8336-0.12722-21.016l0.03349-20.822 6.7469-0.04097c7.3678-0.04474 9.459 0.05608 12.105 0.5836 9.9194 1.9778 15.853 8.565 16.684 18.521 0.50509 6.0548-1.6382 12.27-5.6854 16.486-3.238 3.3736-7.0399 5.2452-12.343 6.0762-1.5967 0.25022-2.4996 0.28256-9.5083 0.34053-6.6911 0.05534-7.766 0.03772-7.9048-0.12959zm-22.588-56.015c2.41-0.84585 3.9417-3.3678 3.5352-5.8206-0.42445-2.5615-2.4342-4.3832-4.9801-4.5142-4.0638-0.20912-6.8153 3.8992-5.0816 7.5876 0.67098 1.4275 2.3399 2.6965 3.8974 2.9635 0.77118 0.13224 1.9009 0.03932 2.629-0.21625z"/></g></svg>
