<svg width="506.99mm" height="512mm" version="1.1" viewBox="0 0 506.99 512" xml:space="preserve" xmlns="http://www.w3.org/2000/svg"><g transform="translate(-38.123 -64.608)"><path d="m113.02 575.3c-15.972-4.3483-28.438-18.034-31.067-34.108-0.55536-3.3954-0.95489-33.042-0.95816-71.099l-0.0055-65.275-12.861-4e-3c-13.573-7e-3 -18.911-0.93728-23.317-4.069-6.0865-4.3261-8.6061-15.302-5.0787-22.123 2.5637-4.9576 37.196-45.488 41.586-48.668 6.0039-4.3492 12.054-5.6973 25.569-5.6973 8.132 0 11.957-0.34558 11.957-1.0801 0-0.59404-14.921-26.91-33.157-58.481-18.237-31.57-34.175-59.584-35.419-62.254-2.9459-6.3223-3.0824-15.74-0.33453-23.085 3.4799-9.301 6.6013-11.494 60.386-42.433l49.777-28.634 19.58-19.116c13.137-12.825 21.282-20.012 24.751-21.839l5.1707-2.7236h224.22l4.557 2.2446c5.8163 2.8649 11.687 8.7361 14.552 14.552 2.0879 4.2389 2.2664 5.9589 2.5569 24.637 0.26046 16.742 0.56411 20.291 1.8276 21.354 0.83341 0.70092 15.905 9.6047 33.492 19.786 17.587 10.182 33.668 20.154 35.736 22.161 5.6341 5.4681 8.1289 11.353 8.5519 20.172 0.30376 6.3303-9.9e-4 8.2406-2.0133 12.618-1.3041 2.8372-17.292 31.009-35.528 62.603s-33.157 57.911-33.157 58.481c0 0.6786 4.1273 1.0363 11.957 1.0363 13.539 0 19.565 1.3475 25.611 5.7274 4.4251 3.2055 38.948 43.617 41.535 48.62 3.5363 6.8384 1.0242 17.81-5.0695 22.141-4.4061 3.1317-9.7443 4.0633-23.317 4.069l-12.861 4e-3 -0.0183 65.761c-0.0183 71.713-0.17169 74.043-5.5198 83.95-5.4387 10.074-16.476 18.504-27.576 21.063-6.6603 1.5355-350.43 1.2542-356.11-0.29128zm235.2-11.541c1.5372-1.1308 1.6323-8.4365 1.3988-107.5-0.18564-78.71-0.5373-106.28-1.356-106.28-0.60807 0-9.4221 9.8277-19.587 21.839-19.04 22.499-23.1 26.209-33.227 30.352l-5.2898 2.1644-196.07 0.97063v136.86l2.7082 5.5148c4.3166 8.7901 12.734 14.9 22.508 16.337 2.6805 0.39408 54.911 0.77098 116.07 0.83756 87.584 0.0954 111.55-0.13646 112.84-1.0922zm-224.09-24.559c-5.6641-2.7954-6.7446-6.1375-6.7446-20.861 0-14.33 0.67329-16.57 6.0373-20.084 2.35-1.5398 5.5487-1.7122 31.775-1.7122 25.658 0 29.525 0.19883 32.185 1.6559 5.0203 2.7492 6.1974 6.6658 6.1974 20.621 0 13.805-0.92226 16.82-6.1136 19.985-2.8986 1.7674-5.0319 1.8935-31.741 1.8762-23.517-0.0147-29.163-0.27954-31.596-1.4802zm56.832-20.835v-9.7225l-50.958 0.51727-0.28454 8.1693c-0.1565 4.4931-0.061 8.7518 0.2122 9.4637 0.39637 1.0329 5.6008 1.2944 25.764 1.2944h25.267zm101.16 18.888c-2.4964-1.7485-2.866-5.8832-0.78118-8.7378 1.271-1.7403 2.8862-1.9068 21.155-2.1805 18.94-0.28395 19.89-0.20874 22.405 1.769 3.1416 2.4712 3.4176 5.986 0.6846 8.719-1.8137 1.8136-3.2355 1.9413-21.623 1.9413-16.243 0-20.059-0.26413-21.839-1.511zm0-32.031c-2.4964-1.7485-2.866-5.8832-0.78118-8.7378 1.271-1.7403 2.8862-1.9068 21.155-2.1805 18.94-0.28395 19.89-0.20875 22.405 1.769 3.1416 2.4712 3.4176 5.986 0.6846 8.719-1.8137 1.8136-3.2355 1.9413-21.623 1.9413-16.243 0-20.059-0.26414-21.839-1.511zm189.1 56.739c7.4291-3.4846 12.017-7.7954 15.204-14.285l2.7082-5.5148v-136.86l-33.972-0.51555c-32.457-0.49257-34.22-0.6143-39.528-2.7296-9.4702-3.7738-15.465-9.3005-33.856-31.212-9.6333-11.478-18.029-20.869-18.656-20.869-0.86581 0-1.2014 25.637-1.3915 106.28-0.23662 100.45-0.15665 106.35 1.4559 107.55 1.3646 1.0132 11.816 1.2076 52.18 0.97065l50.473-0.29642zm-176.15-173.19c5.1469-2.6313 7.8797-5.4507 25.873-26.692 11.065-13.063 20.128-24.078 20.141-24.478 0.011-0.40038-55.463-0.72798-123.28-0.72798-101.7 0-123.85 0.23111-126.46 1.3186-3.433 1.4344-9.0812 7.5339-28.656 30.946-7.0778 8.4651-12.775 16.148-12.775 17.229 0 1.0726 0.88041 2.8307 1.9565 3.9067 1.9429 1.9429 2.773 1.9546 119.7 1.6986l117.74-0.25789zm236.28 1.4862c1.0677-1.0677 1.9412-2.8189 1.9412-3.8916 0-1.0806-5.6968-8.7637-12.775-17.229-19.575-23.412-25.223-29.512-28.656-30.946-2.5423-1.0623-14.689-1.3186-62.477-1.3186-36.921 0-59.199 0.34705-58.997 0.91933 0.74883 2.1278 39.129 46.841 41.9 48.814 7.682 5.4701 8.3428 5.5267 64.951 5.5611 50.899 0.0293 52.219-0.0147 54.113-1.9096zm-87.946-67.539c1.1354-2.9588 0.65351-228.72-0.49702-232.87-1.5021-5.4231-4.2274-8.9048-8.9446-11.427l-4.0434-2.162-102.89-0.27742c-56.588-0.15257-103.84-0.04248-105.01 0.24466-2.108 0.51956-2.1197 0.65814-2.4266 28.911-0.28886 26.59-0.43988 28.673-2.383 32.876-2.9777 6.4399-8.4286 12.033-14.756 15.14l-5.4943 2.6982-28.126 0.29864c-20.434 0.217-28.327 0.61518-28.862 1.456-0.86759 1.3646-1.0401 162.86-0.17635 165.12 0.53376 1.3909 14.811 1.5353 151.8 1.5353 136.99 0 151.27-0.14454 151.8-1.5353zm-271.72-48.408c-1.3104-1.3103-2.3825-3.0774-2.3825-3.9267 0-0.84929 1.0721-2.6163 2.3825-3.9266l2.3825-2.3825h235.07l2.3825 2.3825c1.3104 1.3104 2.3825 3.0774 2.3825 3.9266 0 0.84931-1.0721 2.6163-2.3825 3.9267l-2.3825 2.3825h-235.07zm1.5162-66.804c-1.3258-0.67429-2.8274-2.4115-3.337-3.8605-0.77018-2.19-0.53961-3.0464 1.3664-5.0752l2.2929-2.4406h236.36l2.0117 2.5575c2.488 3.163 2.514 4.3722 0.15628 7.284l-1.8554 2.2914-117.29 0.23478c-92.933 0.186-117.79-0.0183-119.7-0.99127zm104.4-69.199c-2.0595-2.0595-1.9279-6.5452 0.24982-8.516 1.6146-1.4612 7.6678-1.6064 66.974-1.6064 63.905 0 65.237 0.0385 67.14 1.9413 2.3321 2.3321 2.4639 4.6457 0.43029 7.5491l-1.511 2.1572h-65.879c-58.596 0-66.048-0.1686-67.404-1.5253zm-150.03 90.032c0-46.353 0.37991-81.594 0.89914-83.404 0.49451-1.7243 0.56535-3.3414 0.15741-3.5935-0.62388-0.38559-53.33 29.46-61.462 34.804-4.443 2.9197-6.9896 8.0664-7.0238 14.196-0.02898 5.1524 0.50609 6.3633 10.516 23.808 37.744 65.774 55.263 95.479 56.031 95.004 0.51621-0.31916 0.88109-33.786 0.88109-80.814zm361.6 26.514c16.956-29.362 31.687-55.308 32.737-57.659 3.6287-8.1319 0.51983-16.982-7.8068-22.224-12.021-7.5678-55.579-32.225-56.927-32.225-1.3758 0-1.5261 8.1578-1.5261 82.828 0 45.555 0.29862 83.126 0.66327 83.491 0.36466 0.36464 0.97107 0.32833 1.3472-0.0811 0.37613-0.40927 14.557-24.767 31.513-54.129zm-292.41-112.47c3.7772-1.6162 7.9659-5.928 9.3708-9.6464 0.62907-1.665 1.0324-12.216 1.0324-27.006 0-20.314-0.2218-24.223-1.3595-23.96-1.6481 0.38045-62.702 59.86-62.702 61.085 0 0.48332 11.14 0.86442 25.268 0.86442 19.296 0 26.006-0.31583 28.391-1.3364z"/></g></svg>
