<svg id="ic2d" width="39.445mm" height="37.645mm" version="1.1" viewBox="0 0 39.445 37.645" xml:space="preserve" xmlns="http://www.w3.org/2000/svg"><path id="icon" d="m14.177 0-5.9531 3.2592c-3.2742 1.7927-6.1733 3.4525-6.5753 3.6959-0.32915 0.19932-1.1138 0.50795-1.4175 1.4594-0.32306 1.012-0.21684 2.2355-0.20361 12.43-0.0062 11.888-0.2315 12.176 1.1322 13.433 0.58792 0.54163 1.8079 0.66882 9.0795 1.6924 4.494 0.63259 9.0045 1.2727 10.023 1.4221 3.8784 0.56911 4.6747 0.36597 10.253-2.6138 7.5026-4.0076 8.13-4.4055 8.5571-5.4276 0.30084-0.72003 0.37207-3.1619 0.37207-12.769 0-13.542 0.11754-12.853-2.3182-13.637-1.7847-0.57449-18.301-2.8884-20.833-2.9187zm1.8857 2.249c1.1294 0 17.032 2.1565 18.214 2.4608 0.03851 0.01 0.08394 0.0593 0.0646 0.0904-0.14924 0.24009-1.5032 1.0104-5.6426 3.236-3.1631 1.7007-4.2138 2.1444-5.0271 2.1218-0.56552-0.0157-4.0645-0.42535-7.7752-0.91002-3.7108-0.48468-7.467-1.0546-8.4129-1.1555-0.88206-0.094-1.6776-0.1932-1.9348-0.28732-0.02666-0.01-0.0732-0.0347-0.07286-0.0615 0.0025-0.2051 1.1197-0.97487 3.1967-2.1182 5.9909-3.298 6.1626-3.3765 7.3897-3.3765zm2.1854 1.0697c-3.708 0.0184-7.4856 2.5587-5.9645 3.7341 0.71355 0.52176 3.956 0.38085 6.3154-0.30541 0.34728-0.10102 0.17978 0.42839 0.14108 0.64493-0.11985 0.67065 0.29468 1.2038 1.1312 1.4082 1.0984 0.25205 2.4312 0.0619 3.3171-0.20567 1.1217-0.23054 2.5204-0.86684 3.3652-1.3157 3.1664-1.6824 2.2024-2.8068-2.0862-2.3213-1.3959 0.15803-2.8635 0.38602-3.1047 0.47852-0.3463 0.13289-0.582-8e-3 -0.40359-0.58911 0.3114-1.0135-0.25578-1.3411-1.972-1.4976-0.24499-0.0223-0.49177-0.0322-0.73897-0.031zm-0.42013 0.89969c0.38458-0.01 0.71724 0.0316 0.95291 0.13901 0.40517 0.18461 0.55552 0.48544 0.55552 0.8971 0 0.53143-0.19298 0.68429-1.1756 0.93173-0.64652 0.1628-1.9562 0.2961-2.9104 0.2961-1.3732 0-1.7348-0.0838-1.7348-0.40101 0-0.80889 2.6459-1.8195 4.3124-1.8629zm6.967 1.5394c0.74782-0.0174 1.2694 0.0482 1.3674 0.20671 0.22607 0.36579-0.5815 0.99206-1.9813 1.5239-1.3998 0.53186-3.0766 0.70041-3.423 0.35399-0.09702-0.097-0.38617-0.46729-0.27234-0.84801 0.16187-0.54139 0.04793-0.63463 1.5844-0.94413 1.003-0.17467 1.9771-0.27506 2.7249-0.29249zm-21.545 4.3026 0.47646 5e-3c0.65484 6e-3 2.7384 0.21629 4.6302 0.46767 3.865 0.51358 8.1607 1.0772 11.509 1.51 1.2369 0.15985 2.5184 0.46617 2.8474 0.68058l0.53744 0.34985a0.13256 0.13256 0 0 1 0.05994 0.11214l-0.06821 10.893a33.961 33.961 0 0 0-5.17e-4 0.14521l-0.02119 10.588a0.47132 0.47132 0 0 1-0.51625 0.46819l-0.83147-0.0806c-0.53334-0.0422-1.0421-0.1146-1.4743-0.1695-0.43656-0.0657-4.4002-0.538-8.9653-1.1782-4.5651-0.64023-8.5321-1.4005-8.7344-1.5684-0.3052-0.25329-0.28982-2.0783-0.23254-11.217l0.0646-10.298a0.71217 0.71217 0 0 1 0.71882-0.70796zm32.495 0.8754a1.2825 1.8621 8.2283 0 1 1.1503 1.8521 1.2825 1.8621 8.2283 0 1-1.4289 1.8521 1.2825 1.8621 8.2283 0 1-1.1503-1.8521 1.2825 1.8621 8.2283 0 1 1.4289-1.8521zm-26.09 5.1149c-0.47437 0.0139-0.86585 0.16019-1.1746 0.43822-0.3487 0.31391-0.53756 0.7482-0.56586 1.3033-0.0423 0.89715-0.07079 1.4645-0.08578 1.7017-0.01488 0.23315-0.05173 0.44869-0.11007 0.64751-0.05419 0.19497-0.14551 0.35412-0.2744 0.47697-0.12474 0.11901-0.33504 0.26218-0.63097 0.42943-0.23847 0.13775-0.36184 0.35574-0.37052 0.65371-6e-3 0.20535 0.02957 0.35785 0.10749 0.45837 0.07804 0.0965 0.21015 0.21013 0.39636 0.34003 0.19036 0.12607 0.34219 0.26005 0.45527 0.40256 0.11711 0.14271 0.20207 0.35053 0.25476 0.62322 0.02105 0.10987 0.03227 0.35037 0.03359 0.7214 0.0013 0.37103-1e-3 0.86274-0.0067 1.4754-0.0065 0.36259 0.06512 0.68665 0.21446 0.97204 0.14922 0.28941 0.36484 0.51744 0.64699 0.68419 0.28619 0.16696 0.61296 0.25936 0.9803 0.27699 0.5934 0.0285 0.89738-0.20111 0.91157-0.68833 0.0061-0.20938-0.03978-0.38101-0.13694-0.5147-0.09717-0.13367-0.22184-0.21381-0.37465-0.24133-0.18487-0.0371-0.31543-0.0737-0.39119-0.10955-0.07588-0.0319-0.14072-0.0997-0.1943-0.20309-0.04966-0.0992-0.08145-0.24387-0.09612-0.43408-0.01064-0.19003-0.01058-0.48452 1e-3 -0.88315 0.01548-0.53151-0.0037-0.96763-0.05839-1.309-0.05462-0.34535-0.15957-0.63058-0.31471-0.85576-0.15502-0.2292-0.3733-0.43954-0.65474-0.63045 0.30826-0.17472 0.54425-0.37502 0.70848-0.601 0.16827-0.22579 0.28362-0.50226 0.34572-0.82992 0.06625-0.33149 0.11116-0.75685 0.13436-1.2759 0.02356-0.53112 0.05213-0.88842 0.08578-1.0723s0.09751-0.30592 0.19224-0.36587c0.09472-0.06 0.25999-0.10047 0.49506-0.12144 0.15802-0.0126 0.28706-0.0793 0.38757-0.19947 0.10456-0.11998 0.16006-0.28848 0.1664-0.50591 0.01396-0.47916-0.2758-0.73272-0.8692-0.76119-0.07115-3e-3 -0.14049-5e-3 -0.20826-3e-3zm5.6214 0.262c-0.58533-0.0281-0.8847 0.19729-0.89865 0.67645-0.0063 0.21743 0.03914 0.39123 0.13643 0.52089 0.10132 0.12984 0.2264 0.20832 0.37517 0.23565 0.17703 0.0286 0.30748 0.063 0.39119 0.10335 0.08787 0.0365 0.15424 0.10247 0.19999 0.19741 0.04574 0.0949 0.07407 0.24552 0.08423 0.45165 0.01028 0.2021 0.0096 0.49442-0.0016 0.87695-0.01149 0.3946-0.0035 0.73939 0.02429 1.0351 0.02789 0.29165 0.08329 0.54662 0.16588 0.76429s0.19058 0.40408 0.32349 0.55966c0.13291 0.15556 0.30639 0.30687 0.52038 0.45423-0.31242 0.17856-0.55068 0.37686-0.71468 0.5948-0.164 0.21793-0.27902 0.48291-0.34468 0.79426-0.06567 0.31137-0.11062 0.74439-0.13488 1.2997-0.01091 0.37447-0.02731 0.65809-0.04909 0.85059-0.01786 0.19673-0.0525 0.34401-0.10387 0.44235-0.04734 0.0985-0.11581 0.16385-0.20567 0.19585s-0.22589 0.0559-0.40824 0.0713c-0.10127 7e-3 -0.19346 0.0391-0.27595 0.0956-0.07846 0.0567-0.14321 0.13803-0.19482 0.24443-0.05172 0.11042-0.07985 0.23248-0.08372 0.36535-0.0069 0.23757 0.06253 0.42198 0.20826 0.55397 0.14976 0.13218 0.36597 0.20504 0.64854 0.21859 0.57322 0.0275 1.0366-0.11954 1.3896-0.44131 0.3569-0.31755 0.54945-0.75389 0.57774-1.309 0.02924-0.58729 0.05342-1.0759 0.07286-1.4661 0.02349-0.38999 0.0622-0.68031 0.11627-0.87126 0.05823-0.19478 0.15171-0.35362 0.2806-0.47646 0.13305-0.12668 0.34335-0.26985 0.63097-0.42943 0.2342-0.12989 0.35604-0.34603 0.36484-0.64802 0.0062-0.21341-0.03361-0.37474-0.11937-0.48369-0.08172-0.10876-0.2099-0.21958-0.38447-0.3328-0.17445-0.11723-0.32223-0.24725-0.44338-0.39016-0.12103-0.14693-0.2098-0.35488-0.26665-0.62373-0.02842-0.13443-0.03539-0.87067-0.02067-2.2086 0.0064-0.35856-0.06945-0.68058-0.22686-0.96635-0.15326-0.28961-0.37092-0.51578-0.65319-0.67851-0.27812-0.16657-0.60488-0.25898-0.9803-0.27699zm16.907 2.9854a1.2825 1.8621 8.2283 0 1 1.1498 1.8521 1.2825 1.8621 8.2283 0 1-1.4289 1.8521 1.2825 1.8621 8.2283 0 1-1.1498-1.8521 1.2825 1.8621 8.2283 0 1 1.4289-1.8521zm-3.6453 8.3013a1.2825 1.8621 8.2283 0 1 1.1498 1.8521 1.2825 1.8621 8.2283 0 1-1.4289 1.8521 1.2825 1.8621 8.2283 0 1-1.1498-1.8521 1.2825 1.8621 8.2283 0 1 1.4289-1.8521z"/></svg>
